<svg width="76" height="66" viewBox="0 0 76 66" fill="none" xmlns="http://www.w3.org/2000/svg">
<path d="M5.38041 11.6699L5.23705 25.945L0.649414 33.1547L5.23705 35.6053V38.6327H9.53796L5.09369 42.2366C5.09369 42.2366 6.2406 48.0047 6.95741 48.8696C7.67423 49.7346 15.9911 49.4462 31.0477 40.6509" stroke="white" stroke-width="0.75" stroke-miterlimit="1.5" stroke-linecap="round" stroke-linejoin="round"/>
<path d="M15.8477 47.7303L19.4317 50.8879V64.1522L31.0459 40.651V29.2607L43.5203 30.3602L38.9327 37.4795L37.499 42.3826L37.7857 52.6195M37.7857 52.6195L45.3857 64.1539H29.899L37.7857 52.6195Z" stroke="white" stroke-width="0.75" stroke-miterlimit="1.5" stroke-linecap="round" stroke-linejoin="round"/>
<path d="M58.4336 47.7302L54.8495 50.8878V64.1521L43.2354 40.6509" stroke="white" stroke-width="0.75" stroke-miterlimit="1.5" stroke-linecap="round" stroke-linejoin="round"/>
<path d="M37.3556 42.2363L31.0459 36.4683" stroke="white" stroke-width="0.75" stroke-miterlimit="1.5" stroke-linecap="round" stroke-linejoin="round"/>
<path d="M30.616 29.2604L24.593 30.3598C24.593 30.3598 14.9859 13.9762 28.3204 0.711914" stroke="white" stroke-width="0.75" stroke-miterlimit="1.5" stroke-linecap="round" stroke-linejoin="round"/>
<path d="M43.6655 29.1998L49.6885 30.2993C49.6885 30.2993 59.2956 13.9156 45.9611 0.651367" stroke="white" stroke-width="0.75" stroke-miterlimit="1.5" stroke-linecap="round" stroke-linejoin="round"/>
<path d="M5.38037 15.5361H21.2471" stroke="white" stroke-width="0.75" stroke-miterlimit="1.5" stroke-linecap="round" stroke-linejoin="round"/>
<path d="M5.38037 11.67C5.38037 11.67 9.68128 -0.296838 28.322 0.712267" stroke="white" stroke-width="0.75" stroke-miterlimit="1.5" stroke-linecap="round" stroke-linejoin="round"/>
<path d="M68.9007 11.6699L69.044 25.945L73.6317 33.1547L69.044 35.6053V38.6327H64.7431L69.1874 42.2366C69.1874 42.2366 68.0405 48.0047 67.3237 48.8696C66.6069 49.7346 58.29 49.4462 43.2334 40.6509" stroke="white" stroke-width="0.75" stroke-miterlimit="1.5" stroke-linecap="round" stroke-linejoin="round"/>
<path d="M68.9009 15.5361H53.0342" stroke="white" stroke-width="0.75" stroke-miterlimit="1.5" stroke-linecap="round" stroke-linejoin="round"/>
<path d="M68.9011 11.67C68.9011 11.67 64.6002 -0.296838 45.9595 0.712267" stroke="white" stroke-width="0.75" stroke-miterlimit="1.5" stroke-linecap="round" stroke-linejoin="round"/>
<path d="M28.3223 0.651367C28.3223 0.651367 51.694 2.33437 43.2355 30.36" stroke="white" stroke-width="0.75" stroke-miterlimit="1.5" stroke-linecap="round" stroke-linejoin="round"/>
<path d="M6.09717 14.6832C6.09717 14.6832 13.1963 15.0323 11.5588 4.46191" stroke="white" stroke-width="0.75" stroke-miterlimit="1.5" stroke-linecap="round" stroke-linejoin="round"/>
<path d="M23.3027 7.48929C23.3027 7.48929 16.9826 7.48929 13.8096 3.16455" stroke="white" stroke-width="0.75" stroke-miterlimit="1.5" stroke-linecap="round" stroke-linejoin="round"/>
<path d="M30.616 29.2604L24.593 30.3598C24.593 30.3598 14.9859 13.9762 28.3204 0.711914" stroke="white" stroke-width="0.75" stroke-miterlimit="1.5" stroke-linecap="round" stroke-linejoin="round"/>
<path d="M30.616 29.2604L24.593 30.3598C24.593 30.3598 14.9859 13.9762 28.3204 0.711914" stroke="white" stroke-width="0.75" stroke-miterlimit="1.5" stroke-linecap="round" stroke-linejoin="round"/>
<path d="M21.2954 15.4751L27.4618 19.7443" stroke="white" stroke-width="0.75" stroke-miterlimit="1.5" stroke-linecap="round" stroke-linejoin="round"/>
<path d="M23.3027 7.48929C23.3027 7.48929 16.9826 7.48929 13.8096 3.16455" stroke="white" stroke-width="0.75" stroke-miterlimit="1.5" stroke-linecap="round" stroke-linejoin="round"/>
<path d="M68.9007 14.6833C68.9007 14.6833 61.4441 15.0099 63.1644 5.10986" stroke="white" stroke-width="0.75" stroke-miterlimit="1.5" stroke-linecap="round" stroke-linejoin="round"/>
<path d="M51.4072 8.13724C51.4072 8.13724 57.7273 8.13724 60.9003 3.8125" stroke="white" stroke-width="0.75" stroke-miterlimit="1.5" stroke-linecap="round" stroke-linejoin="round"/>
<path d="M53.1293 15.5063L46.9629 19.7755" stroke="white" stroke-width="0.75" stroke-miterlimit="1.5" stroke-linecap="round" stroke-linejoin="round"/>
</svg>
