<svg width="90" height="86" viewBox="0 0 90 86" fill="none" xmlns="http://www.w3.org/2000/svg">
<g clip-path="url(#clip0_82_293)">
<path fill-rule="evenodd" clip-rule="evenodd" d="M79.7473 74.3457C79.7322 75.9813 80.3367 85.4058 78.4623 85.4465C76.2711 85.4939 2.60743 85.5049 1.42546 85.4423C0.0686992 85.3704 0.143613 84.5458 0.144653 41.5088C0.144653 35.3518 -0.848989 34.8175 2.36344 31.9847C19.5612 16.8211 39.2712 -0.575399 40.344 0.0140924C45.6051 2.90526 51.4446 11.696 54.9994 9.66277C68.7741 1.78517 69.1216 15.8824 72.1587 14.3057C77.2819 11.646 82.0993 6.27489 89.7165 17.6571C90.0671 18.1809 89.1167 26.1263 88.315 26.9055C84.5444 30.5696 83.6241 29.3714 80.124 33.2768C80.0282 33.3831 79.6438 33.2825 79.7463 74.3447L44.6255 33.9617C57.5782 33.9195 57.5626 33.4316 58.6779 33.5755C61.418 33.9283 58.4641 31.5427 52.5205 21.647C49.5344 16.6746 53.5339 16.0179 52.5512 12.26C52.4112 11.7257 40.7586 2.24853 40.3877 2.02701C38.9206 1.15086 6.64962 31.1133 3.60523 32.7478C0.711705 34.3015 4.98748 33.8694 44.6244 33.9617L79.7452 74.3447L4.11194 82.7278C4.26853 83.027 4.42512 83.3257 4.5817 83.6248C34.9622 83.3757 65.854 83.5373 75.3056 83.6316C75.4705 83.3252 75.6354 83.0187 75.7998 82.7117C73.863 80.9057 51.8884 60.4158 50.8916 60.9057C49.8673 61.4092 50.3314 61.9315 40.8288 71.0324C38.917 72.8634 29.6012 60.5534 28.5227 60.8682C26.7175 61.3946 6.01858 80.9291 4.11194 82.7284L79.7452 74.3452L50.9307 56.3993C52.9346 55.5597 63.4266 45.9787 65.7963 44.387C67.5541 43.2059 62.2067 35.4659 60.2298 35.4659C47.4664 35.4659 12.0621 35.5529 5.10454 35.3929C2.78795 35.3398 5.03587 37.0019 26.5453 54.9071C30.0949 57.8619 29.6116 52.2124 34.2182 52.1906C38.6584 52.1692 39.2822 55.7635 40.3674 54.8993C41.0353 54.3671 48.3805 48.517 50.9307 56.3993L79.7452 74.3452L1.70483 54.0179C1.70951 70.8718 1.71419 77.4203 1.71367 77.4714C1.66529 82.1019 2.15899 82.3312 2.44876 82.0951C7.34881 78.1094 6.73182 77.5913 25.2505 61.6881C25.5455 61.4348 28.9904 58.4764 27.3304 57.2943C19.6861 51.8518 1.59766 34.5731 1.61587 36.8461C1.67049 43.6416 1.66009 43.5494 1.70483 54.0179L79.7452 74.3447L76.9386 81.5666C77.271 81.5953 77.6029 81.6244 77.9353 81.6531C78.2428 79.8158 78.2225 79.8638 78.2147 59.23C78.2142 57.4652 78.2064 37.5492 78.1549 37.1729C77.9947 36.009 51.5471 57.7144 51.7771 58.7573C52.1839 60.6024 74.866 79.8111 76.9391 81.5671L79.7452 74.3452L69.852 19.6289C71.6203 8.42124 56.0253 4.30523 53.7222 15.4785C52.1464 23.1236 58.8871 27.0911 65.8192 39.5553C67.1036 41.8643 68.4057 26.6475 69.852 19.6289L79.7452 74.3452L69.339 33.1653C68.0536 39.8926 67.9745 40.2803 68.5363 40.2084C68.567 40.2048 87.0758 26.1482 87.3713 25.3919C92.4727 12.3293 73.4936 7.38195 71.446 19.5872C70.3041 26.3926 70.5023 26.3515 69.339 33.1653L79.7452 74.3452L39.1568 60.273C38.9737 56.0032 39.3488 55.1422 35.304 53.8861C32.9999 53.1704 24.5638 56.8299 38.4488 68.5081C38.9544 68.9334 39.253 68.2778 39.1568 60.273L79.7452 74.3452L49.5869 57.1384C48.4689 53.4091 44.9751 52.1129 41.1269 56.2247C40.5432 56.8481 39.9257 69.7215 41.6383 67.8102C46.2382 62.6773 48.5366 64.021 49.5869 57.1384L79.7447 74.3457L76.9386 81.5676C77.516 82.1087 77.8942 82.511 77.9353 81.6542C77.6029 81.6255 77.271 81.5963 76.9386 81.5676L79.7447 74.3457H79.7473Z" fill="white" fill-opacity="0.91"/>
<path fill-rule="evenodd" clip-rule="evenodd" d="M75.8023 82.7126C76.0931 83.3834 76.0359 83.4955 75.3081 83.6326C75.473 83.3261 75.6379 83.0196 75.8023 82.7126Z" fill="white" fill-opacity="0.07"/>
<path fill-rule="evenodd" clip-rule="evenodd" d="M4.11387 82.7288C4.27046 83.0279 4.42705 83.3266 4.58364 83.6258C4.04104 83.3646 4.10711 83.3735 4.11387 82.7288Z" fill="white" fill-opacity="0.14"/>
</g>
<defs>
<clipPath id="clip0_82_293">
<rect width="90" height="86" fill="white"/>
</clipPath>
</defs>
</svg>
