<svg width="43" height="68" viewBox="0 0 43 68" fill="none" xmlns="http://www.w3.org/2000/svg">
<g clip-path="url(#clip0_74_146)">
<path d="M10.3545 11.9316H32.4003" stroke="white" stroke-width="0.8" stroke-miterlimit="1.5" stroke-linecap="round" stroke-linejoin="round"/>
<path d="M13.4888 63.3296L17.759 67.1492L21.1196 67.2321" stroke="white" stroke-width="0.8" stroke-miterlimit="1.5" stroke-linecap="round" stroke-linejoin="round"/>
<path d="M13.4888 63.2466L21.1196 63.3295" stroke="white" stroke-width="0.8" stroke-miterlimit="1.5" stroke-linecap="round" stroke-linejoin="round"/>
<path d="M13.4888 57.0552H21.1196" stroke="white" stroke-width="0.8" stroke-miterlimit="1.5" stroke-linecap="round" stroke-linejoin="round"/>
<path d="M13.4888 28.9796L19.2359 29.1488L17.6862 23.3804" stroke="white" stroke-width="0.8" stroke-miterlimit="1.5" stroke-linecap="round" stroke-linejoin="round"/>
<path d="M17.6862 23.382L7.22559 7.01221" stroke="white" stroke-width="0.8" stroke-miterlimit="1.5" stroke-linecap="round" stroke-linejoin="round"/>
<path d="M0.661621 21.7352C0.661621 21.7352 1.34797 12.3728 6.70312 7.4154C12.0583 2.45803 18.7845 0.53081 21.1197 0.668469" stroke="white" stroke-width="0.8" stroke-miterlimit="1.5" stroke-linecap="round" stroke-linejoin="round"/>
<path d="M0.661621 21.7354C0.661621 21.7354 7.52674 36.3305 8.89943 37.8447C10.2721 39.359 16.8627 42.1121 17.6863 42.1121" stroke="white" stroke-width="0.8" stroke-miterlimit="1.5" stroke-linecap="round" stroke-linejoin="round"/>
<path d="M9.17383 37.8447L13.1546 45.5553V51.0633H21.1179" stroke="white" stroke-width="0.8" stroke-miterlimit="1.5" stroke-linecap="round" stroke-linejoin="round"/>
<path d="M0.661621 21.7353L21.118 0.663574" stroke="white" stroke-width="0.8" stroke-miterlimit="1.5" stroke-linecap="round" stroke-linejoin="round"/>
<path d="M17.686 51.0632V42.1138" stroke="white" stroke-width="0.8" stroke-miterlimit="1.5" stroke-linecap="round" stroke-linejoin="round"/>
<path d="M17.6861 42.1134C17.6861 42.1134 12.8072 29.4902 13.5696 28.6411C14.3304 27.7935 17.6861 23.3818 17.6861 23.3818H21.1178" stroke="white" stroke-width="0.8" stroke-miterlimit="1.5" stroke-linecap="round" stroke-linejoin="round"/>
<path d="M10.1016 11.9316L9.17383 37.8446" stroke="white" stroke-width="0.8" stroke-miterlimit="1.5" stroke-linecap="round" stroke-linejoin="round"/>
<path d="M13.4888 54.0864H21.1196" stroke="white" stroke-width="0.8" stroke-miterlimit="1.5" stroke-linecap="round" stroke-linejoin="round"/>
<path d="M13.4888 54.0864H21.1196" stroke="white" stroke-width="0.8" stroke-miterlimit="1.5" stroke-linecap="round" stroke-linejoin="round"/>
<path d="M13.4888 60.1934H21.1196" stroke="white" stroke-width="0.8" stroke-miterlimit="1.5" stroke-linecap="round" stroke-linejoin="round"/>
<path d="M29.0137 63.3296L24.7434 67.1492L21.3828 67.2321" stroke="white" stroke-width="0.8" stroke-miterlimit="1.5" stroke-linecap="round" stroke-linejoin="round"/>
<path d="M29.0137 63.2466L21.3828 63.3295" stroke="white" stroke-width="0.8" stroke-miterlimit="1.5" stroke-linecap="round" stroke-linejoin="round"/>
<path d="M29.0137 57.0552H21.3828" stroke="white" stroke-width="0.8" stroke-miterlimit="1.5" stroke-linecap="round" stroke-linejoin="round"/>
<path d="M29.0132 28.9796L23.2661 29.1488L24.8158 23.3804" stroke="white" stroke-width="0.8" stroke-miterlimit="1.5" stroke-linecap="round" stroke-linejoin="round"/>
<path d="M24.8159 23.382L35.2765 7.01221" stroke="white" stroke-width="0.8" stroke-miterlimit="1.5" stroke-linecap="round" stroke-linejoin="round"/>
<path d="M41.8409 21.7352C41.8409 21.7352 41.1545 12.3728 35.7994 7.4154C30.4442 2.45803 23.718 0.53081 21.3828 0.668469" stroke="white" stroke-width="0.8" stroke-miterlimit="1.5" stroke-linecap="round" stroke-linejoin="round"/>
<path d="M41.8406 21.7354C41.8406 21.7354 34.9755 36.3305 33.6028 37.8447C32.2301 39.359 25.6395 42.1121 24.8159 42.1121" stroke="white" stroke-width="0.8" stroke-miterlimit="1.5" stroke-linecap="round" stroke-linejoin="round"/>
<path d="M33.3284 37.8447L29.3475 45.5553V51.0633H21.3843" stroke="white" stroke-width="0.8" stroke-miterlimit="1.5" stroke-linecap="round" stroke-linejoin="round"/>
<path d="M41.8407 21.7353L21.3843 0.663574" stroke="white" stroke-width="0.8" stroke-miterlimit="1.5" stroke-linecap="round" stroke-linejoin="round"/>
<path d="M24.8159 51.0632V42.1138" stroke="white" stroke-width="0.8" stroke-miterlimit="1.5" stroke-linecap="round" stroke-linejoin="round"/>
<path d="M24.816 42.1134C24.816 42.1134 29.6949 29.4902 28.9324 28.6411C28.1717 27.7935 24.816 23.3818 24.816 23.3818H21.3843" stroke="white" stroke-width="0.8" stroke-miterlimit="1.5" stroke-linecap="round" stroke-linejoin="round"/>
<path d="M32.4004 11.9316L33.3282 37.8446" stroke="white" stroke-width="0.8" stroke-miterlimit="1.5" stroke-linecap="round" stroke-linejoin="round"/>
<path d="M29.0137 54.0864H21.3828" stroke="white" stroke-width="0.8" stroke-miterlimit="1.5" stroke-linecap="round" stroke-linejoin="round"/>
<path d="M29.0137 54.0864H21.3828" stroke="white" stroke-width="0.8" stroke-miterlimit="1.5" stroke-linecap="round" stroke-linejoin="round"/>
<path d="M29.0137 60.1934H21.3828" stroke="white" stroke-width="0.8" stroke-miterlimit="1.5" stroke-linecap="round" stroke-linejoin="round"/>
</g>
<defs>
<clipPath id="clip0_74_146">
<rect width="43" height="68" fill="white"/>
</clipPath>
</defs>
</svg>
