<svg width="111" height="74" viewBox="0 0 111 74" fill="none" xmlns="http://www.w3.org/2000/svg">
<g clip-path="url(#clip0_86_739)">
<path d="M16.0586 31.7207C24.7085 31.7207 31.7207 24.7085 31.7207 16.0586C31.7207 7.40864 24.7085 0.396484 16.0586 0.396484C7.40864 0.396484 0.396484 7.40864 0.396484 16.0586C0.396484 24.7085 7.40864 31.7207 16.0586 31.7207Z" stroke="white" stroke-width="1.5" stroke-miterlimit="1.5" stroke-linecap="round" stroke-linejoin="round"/>
<path d="M55.2749 31.7207C63.9248 31.7207 70.937 24.7085 70.937 16.0586C70.937 7.40864 63.9248 0.396484 55.2749 0.396484C46.625 0.396484 39.6128 7.40864 39.6128 16.0586C39.6128 24.7085 46.625 31.7207 55.2749 31.7207Z" stroke="white" stroke-width="1.5" stroke-miterlimit="1.5" stroke-linecap="round" stroke-linejoin="round"/>
<path d="M94.4809 31.7207C103.131 31.7207 110.143 24.7085 110.143 16.0586C110.143 7.40864 103.131 0.396484 94.4809 0.396484C85.831 0.396484 78.8188 7.40864 78.8188 16.0586C78.8188 24.7085 85.831 31.7207 94.4809 31.7207Z" stroke="white" stroke-width="1.5" stroke-miterlimit="1.5" stroke-linecap="round" stroke-linejoin="round"/>
<path d="M16.0586 73.3706C24.7085 73.3706 31.7207 66.3584 31.7207 57.7085C31.7207 49.0585 24.7085 42.0464 16.0586 42.0464C7.40864 42.0464 0.396484 49.0585 0.396484 57.7085C0.396484 66.3584 7.40864 73.3706 16.0586 73.3706Z" stroke="white" stroke-width="1.5" stroke-miterlimit="1.5" stroke-linecap="round" stroke-linejoin="round"/>
<path d="M55.2749 73.3706C63.9248 73.3706 70.937 66.3584 70.937 57.7085C70.937 49.0585 63.9248 42.0464 55.2749 42.0464C46.625 42.0464 39.6128 49.0585 39.6128 57.7085C39.6128 66.3584 46.625 73.3706 55.2749 73.3706Z" stroke="white" stroke-width="1.5" stroke-miterlimit="1.5" stroke-linecap="round" stroke-linejoin="round"/>
<path d="M94.4809 73.3706C103.131 73.3706 110.143 66.3584 110.143 57.7085C110.143 49.0585 103.131 42.0464 94.4809 42.0464C85.831 42.0464 78.8188 49.0585 78.8188 57.7085C78.8188 66.3584 85.831 73.3706 94.4809 73.3706Z" stroke="white" stroke-width="1.5" stroke-miterlimit="1.5" stroke-linecap="round" stroke-linejoin="round"/>
<path fill-rule="evenodd" clip-rule="evenodd" d="M16.0583 6.46118L18.2656 13.3987H25.4082L19.6299 17.6865L21.8372 24.624L16.0588 20.3362L10.2805 24.624L12.4878 17.6865L6.70947 13.3987H13.8521L16.0594 6.46118H16.0583Z" stroke="white" stroke-width="1.5" stroke-miterlimit="1.5" stroke-linecap="round" stroke-linejoin="round"/>
<path fill-rule="evenodd" clip-rule="evenodd" d="M89.1203 15.0041C88.8957 14.742 88.5024 14.1235 88.5024 13.1124C88.5024 12.0822 89.0833 7.71777 89.2514 6.68758C89.2699 6.61253 89.3075 6.538 89.3825 6.50047C89.4385 6.46294 89.5136 6.44444 89.5887 6.48197C90.3006 6.68811 92.0798 8.20511 92.1358 8.20511C92.9789 8.07403 96.5003 8.0365 97.3428 8.20511C97.3803 8.20511 99.1595 6.68811 99.8715 6.48197C99.9465 6.44444 100.021 6.46347 100.096 6.50047C100.152 6.538 100.209 6.61305 100.209 6.68758C100.396 7.71777 100.977 12.0822 100.977 13.1124C100.977 14.1241 100.583 14.742 100.34 15.0041C100.19 15.2103 99.9841 15.3974 99.7404 15.51C99.4967 15.6226 99.2536 15.6971 99.0284 15.7536C98.7662 15.8097 98.5041 15.8472 98.2794 15.8287C98.2044 15.8287 98.1298 15.8847 98.1108 15.9783C98.1108 16.0718 98.1859 16.1469 98.2604 16.1469C98.5041 16.1654 98.8038 16.1284 99.1035 16.0533C99.3471 15.9973 99.9275 15.7536 99.965 15.7351C100.171 15.8287 100.771 18.3764 100.546 20.3427C100.546 20.3802 100.564 20.4178 100.602 20.4363C100.64 20.4363 100.677 20.4363 100.696 20.3987C100.771 20.2676 100.827 20.099 100.827 19.8744C100.827 19.7808 100.845 19.6682 100.845 19.5562C100.845 19.5377 100.845 19.5187 100.864 19.5187C100.882 19.5002 100.901 19.5002 100.92 19.5002C101.144 19.5187 101.369 19.5562 101.575 19.5752C102.212 19.6503 102.755 19.9309 103.149 20.3808C103.486 20.7555 103.635 21.5235 103.635 22.0664C103.635 22.3846 103.373 22.6282 103.055 22.6282C102.755 22.6282 102.511 22.3846 102.493 22.0664C102.474 21.8602 102.474 21.7106 102.249 21.4855C102.062 21.2984 101.762 21.3544 101.575 21.3729C101.331 21.3914 100.713 21.4664 100.282 21.5225C100.189 21.7471 100.076 21.9533 99.945 22.1219C99.9635 22.2154 100.17 23.7515 98.0717 23.7515C97.7905 23.7515 97.5098 23.8075 97.2852 23.6389C97.2101 24.5004 98.1843 25.1934 95.8427 25.1934C94.6064 25.1934 94.8876 24.6125 95.1307 23.826C94.9996 23.8445 94.8686 23.8445 94.7375 23.8445C94.5879 23.8445 94.4563 23.8445 94.3252 23.826C94.5689 24.6125 94.8495 25.1934 93.6132 25.1934C91.2907 25.1934 92.2458 24.5004 92.1707 23.6389C91.9461 23.8075 91.6839 23.7515 91.3842 23.7515C89.3053 23.7515 89.511 22.2154 89.511 22.1219C88.2186 20.5483 89.2298 15.8657 89.511 15.7346C89.5295 15.7531 90.1104 15.9968 90.3725 16.0528C90.6722 16.1279 90.9534 16.1654 91.1966 16.1464C91.2901 16.1464 91.3462 16.0713 91.3462 15.9778C91.3462 15.8842 91.2711 15.8282 91.1775 15.8282C90.9529 15.8467 90.7092 15.8097 90.4471 15.7531C90.2034 15.6971 89.9602 15.622 89.7166 15.5094C89.4729 15.3969 89.2673 15.2097 89.1172 15.0036L89.1203 15.0041ZM92.0798 11.8575C91.649 12.1948 91.0872 12.3444 90.806 12.3444C90.6564 12.3444 90.6564 12.5505 90.8435 12.588C91.0306 12.6256 92.1358 12.1387 92.2109 12.0822C92.3605 11.9511 92.2109 11.764 92.0798 11.8575ZM95.0208 12.7566C95.1519 12.6816 95.283 12.5695 95.283 12.4754C95.283 12.2508 94.9272 12.2133 94.7396 12.2133C94.5334 12.2133 94.1777 12.2508 94.1777 12.4754C94.1777 12.569 94.3088 12.6816 94.4399 12.7566C94.4584 12.7566 94.4774 12.7942 94.4774 12.8127C94.4959 12.8502 94.0281 13.2059 93.7094 13.2059C93.2226 13.2059 93.166 12.8312 92.8663 12.7936C92.8103 12.7751 92.7537 12.7936 92.7352 12.8497C92.7167 12.9057 92.7167 12.9623 92.7728 12.9993C93.054 13.1864 93.4097 13.4485 93.7094 13.4485C94.0651 13.4485 94.59 12.9427 94.7396 12.9427C94.8892 12.9427 95.395 13.4485 95.7698 13.4485C96.0695 13.4485 96.4067 13.1864 96.7064 12.9993C96.7439 12.9617 96.7624 12.9057 96.7439 12.8497C96.7064 12.7936 96.6504 12.7746 96.5943 12.7936C96.2946 12.8312 96.2571 13.2059 95.7703 13.2059C95.4521 13.2059 94.9838 12.8502 94.9838 12.8127C94.9838 12.7942 95.0023 12.7566 95.0213 12.7566H95.0208ZM98.6172 12.588C98.9169 11.7265 97.6245 11.2766 97.2498 12.0822C97.2122 12.1948 97.3624 12.3259 97.4744 12.2133C97.7741 11.8951 98.4295 12.1757 98.3735 12.5505C98.355 12.7001 98.5606 12.7376 98.6172 12.588ZM98.6547 9.51597C98.8233 9.79717 99.2916 10.4336 99.8345 10.4336C100.34 10.4336 99.928 7.21193 99.797 7.13687C99.6659 7.06181 98.5231 9.2908 98.6542 9.51544L98.6547 9.51597ZM90.8065 9.51597C90.9561 9.29133 89.7948 7.06234 89.6637 7.1374C89.5326 7.21245 89.1394 10.4341 89.6262 10.4341C90.1881 10.4341 90.6564 9.79717 90.806 9.5165L90.8065 9.51597ZM94.7401 13.9549C94.5905 13.9549 94.553 13.5056 94.534 13.5056C94.5155 13.4871 93.9721 13.5992 93.9346 13.6367C93.897 13.6927 93.9346 14.5358 94.7401 14.5358C95.5266 14.5358 95.5642 13.6927 95.5266 13.6367C95.5081 13.5992 94.9457 13.4871 94.9272 13.5056C94.9087 13.5056 94.8712 13.9549 94.7401 13.9549Z" stroke="white" stroke-width="1.5" stroke-miterlimit="1.5" stroke-linecap="round" stroke-linejoin="round"/>
<path fill-rule="evenodd" clip-rule="evenodd" d="M16.0586 54.3028C17.8468 51.208 21.4226 51.208 23.2102 52.7556C24.9983 54.3028 24.9983 57.3976 23.2102 60.4923C21.9585 62.8133 18.7401 65.1342 16.0586 66.6814C13.3766 65.1342 10.1582 62.8133 8.90704 60.4923C7.11888 57.3976 7.11888 54.3033 8.90704 52.7556C10.6952 51.2085 14.271 51.2085 16.0586 54.3028Z" stroke="white" stroke-width="1.5" stroke-miterlimit="1.5" stroke-linecap="round" stroke-linejoin="round"/>
<path fill-rule="evenodd" clip-rule="evenodd" d="M102.823 54.7511V59.9808C102.823 61.4238 101.651 62.5956 100.208 62.5956H94.0645L89.4765 67.0784L91.5617 62.5956H88.7545C87.3115 62.5956 86.1396 61.4238 86.1396 59.9808V54.7511C86.1396 53.3081 87.3115 52.1362 88.7545 52.1362H100.208C101.651 52.1362 102.823 53.3081 102.823 54.7511Z" stroke="white" stroke-width="1.5" stroke-miterlimit="1.5" stroke-linecap="round" stroke-linejoin="round"/>
<path d="M60.5685 22.7006C63.87 19.8379 64.2257 14.8402 61.3629 11.5388C58.6366 8.39431 53.8768 8.05549 50.7323 10.7824C47.7533 13.3655 47.4324 17.8742 50.0156 20.8533C52.4549 23.6669 56.7136 23.9697 59.5272 21.5304C62.1754 19.2343 62.4603 15.2261 60.1641 12.5785C58.0118 10.0958 54.2542 9.82885 51.7715 11.9812C49.4548 13.9903 49.2047 17.4974 51.2138 19.8141C53.0792 21.9654 56.3357 22.1974 58.4875 20.3316C60.4734 18.6095 60.6874 15.6035 58.9653 13.6177C57.387 11.7973 54.6311 11.6012 52.8107 13.1795C51.1557 14.6145 50.9776 17.1194 52.4126 18.7744C53.7039 20.2639 55.9588 20.4241 57.4483 19.1328C58.7724 17.9847 58.9151 15.9809 57.7671 14.6568C56.7628 13.4982 55.009 13.3735 53.8504 14.3783C52.8572 15.2393 52.7504 16.742 53.6114 17.7352C54.3287 18.563 55.5814 18.6518 56.4092 17.9345C57.0709 17.3605 57.1423 16.3583 56.5683 15.6965C56.138 15.2002 55.3864 15.1468 54.8895 15.5771C54.5586 15.8641 54.5227 16.3652 54.8097 16.6961C54.953 16.8615 55.2035 16.8795 55.3695 16.7357" stroke="white" stroke-width="1.5" stroke-miterlimit="1.5" stroke-linecap="round" stroke-linejoin="round"/>
<path d="M90.6696 57.9473C90.8015 57.9473 90.9085 57.8403 90.9085 57.7084C90.9085 57.5764 90.8015 57.4695 90.6696 57.4695C90.5376 57.4695 90.4307 57.5764 90.4307 57.7084C90.4307 57.8403 90.5376 57.9473 90.6696 57.9473Z" stroke="white" stroke-width="1.5" stroke-miterlimit="1.5" stroke-linecap="round" stroke-linejoin="round"/>
<path d="M61.8175 55.5691C61.9495 55.5691 62.0564 55.4622 62.0564 55.3302C62.0564 55.1983 61.9495 55.0913 61.8175 55.0913C61.6856 55.0913 61.5786 55.1983 61.5786 55.3302C61.5786 55.4622 61.6856 55.5691 61.8175 55.5691Z" stroke="white" stroke-width="1.5" stroke-miterlimit="1.5" stroke-linecap="round" stroke-linejoin="round"/>
<path d="M94.8107 57.9473C94.9426 57.9473 95.0496 57.8403 95.0496 57.7084C95.0496 57.5764 94.9426 57.4695 94.8107 57.4695C94.6787 57.4695 94.5718 57.5764 94.5718 57.7084C94.5718 57.8403 94.6787 57.9473 94.8107 57.9473Z" stroke="white" stroke-width="1.5" stroke-miterlimit="1.5" stroke-linecap="round" stroke-linejoin="round"/>
<path d="M98.8668 57.9473C98.9988 57.9473 99.1058 57.8403 99.1058 57.7084C99.1058 57.5764 98.9988 57.4695 98.8668 57.4695C98.7349 57.4695 98.6279 57.5764 98.6279 57.7084C98.6279 57.8403 98.7349 57.9473 98.8668 57.9473Z" stroke="white" stroke-width="1.5" stroke-miterlimit="1.5" stroke-linecap="round" stroke-linejoin="round"/>
<path d="M55.7841 62.8816C57.8033 62.8816 59.4402 61.2447 59.4402 59.2255C59.4402 57.2062 57.8033 55.5693 55.7841 55.5693C53.7648 55.5693 52.1279 57.2062 52.1279 59.2255C52.1279 61.2447 53.7648 62.8816 55.7841 62.8816Z" stroke="white" stroke-width="1.5" stroke-miterlimit="1.5" stroke-linecap="round" stroke-linejoin="round"/>
<path d="M55.7839 50.5747H52.475V52.6171H46.3198V65.8917H55.7839" stroke="white" stroke-width="1.5" stroke-miterlimit="1.5" stroke-linecap="round" stroke-linejoin="round"/>
<path d="M55.7837 50.5747H59.0925V52.6171H65.2478V65.8917H55.7837" stroke="white" stroke-width="1.5" stroke-miterlimit="1.5" stroke-linecap="round" stroke-linejoin="round"/>
</g>
<defs>
<clipPath id="clip0_86_739">
<rect width="111" height="74" fill="white"/>
</clipPath>
</defs>
</svg>
