<svg width="61" height="83" viewBox="0 0 61 83" fill="none" xmlns="http://www.w3.org/2000/svg">
<g clip-path="url(#clip0_82_355)">
<path fill-rule="evenodd" clip-rule="evenodd" d="M8.44979 1.48722C4.92144 1.57984 4.6017 2.07126 4.27484 1.26252C3.80769 0.105578 5.26254 0.0984931 5.39165 0.097987C9.05216 0.0812858 46.9825 -0.093824 51.1447 0.25842C52.5858 0.380389 60.5768 8.41823 60.6607 9.80393C60.712 10.6496 60.6958 79.8792 60.679 80.6469C60.6241 83.1643 59.4997 82.722 56.7409 82.722C6.81804 82.725 6.68434 82.6911 5.99352 82.0716C5.45977 81.5934 1.04337 76.8122 0.865961 76.5668C-0.184255 75.1118 0.73532 48.3397 0.330178 4.73485C0.315945 3.1953 1.82874 3.17708 1.82722 4.73536C1.76622 74.6694 1.80638 74.9498 2.34267 75.0991C3.49303 75.4185 53.7936 75.1528 58.2675 75.129C59.1972 75.1239 59.3029 74.9928 59.3126 74.0712C59.6059 45.746 59.2902 15.871 59.2369 10.8106C59.2175 9.00885 54.9109 10.0428 52.1665 9.77811C49.5358 9.52456 51.5768 2.4979 50.6054 1.74078C49.9969 1.26657 13.9256 1.6178 8.44979 1.48722L7.71372 78.1266C7.80319 80.5169 7.56224 81.2998 9.96665 81.3605C13.6256 81.4537 13.5997 81.3378 55.7233 81.3762C58.4484 81.3788 58.666 81.8019 59.1632 81.0695C59.3944 80.7284 59.5368 76.7434 58.7905 76.5541C58.6802 76.5258 9.29362 76.4215 8.44369 76.5749C7.51039 76.7434 7.73049 77.8943 7.71372 78.1266L8.44979 1.48722L55.8539 6.12814C52.9467 3.04854 52.9915 2.99691 52.6519 2.85875C52.2864 2.70996 52.1187 2.95086 52.2422 7.75575C52.261 8.48605 52.8131 8.33979 56.7598 8.44252C58.7448 8.49415 56.6098 6.84882 55.8539 6.12814L8.44979 1.48722L4.75776 78.7562C5.66615 79.6363 5.81154 80.5533 6.30564 79.5907C6.32139 79.5599 6.46169 77.0177 5.84763 76.7186C5.56194 76.5794 3.46812 76.4919 3.36544 76.6007C3.02841 76.957 4.61543 78.6084 4.75776 78.7562L8.44979 1.48722Z" fill="white" fill-opacity="0.95"/>
<path fill-rule="evenodd" clip-rule="evenodd" d="M24.7161 47.6918C11.1116 47.6802 11.0978 47.6751 10.7984 47.4489C8.84034 45.9686 13.3325 46.2156 23.6989 46.2307C50.5806 46.2697 50.6482 46.1973 50.9507 46.4494C52.769 47.9646 49.9538 47.6853 24.7161 47.6918Z" fill="white"/>
<path fill-rule="evenodd" clip-rule="evenodd" d="M40.9828 52.0515C40.3759 52.0591 11.47 52.1497 10.9129 51.9462C10.3471 51.7392 10.1305 50.6633 11.4863 50.6344C14.5779 50.5686 31.5522 50.2073 50.143 50.6395C51.5099 50.6714 51.6568 51.9893 50.1547 52.0449C47.3843 52.1472 41.7168 52.0626 40.9828 52.0515Z" fill="white" fill-opacity="0.96"/>
<path fill-rule="evenodd" clip-rule="evenodd" d="M15.0566 37.4136C50.4905 37.4713 51.1472 37.2127 51.1442 38.1373C51.1406 39.1799 46.531 38.8418 46.0644 38.8423C11.9024 38.8711 8.67088 39.817 10.5227 37.6666C10.7434 37.4105 14.6936 37.4136 15.0566 37.4136Z" fill="white"/>
<path fill-rule="evenodd" clip-rule="evenodd" d="M14.0408 28.7924C16.9739 28.7731 49.8097 28.555 50.7043 28.93C51.1959 29.1355 51.2457 30.172 50.1518 30.2039C38.3681 30.5475 14.5817 30.2302 11.489 30.1887C10.0682 30.17 10.057 28.8561 11.4834 28.7939C11.6877 28.7848 11.6725 28.7939 14.0408 28.7924Z" fill="white" fill-opacity="0.95"/>
<path fill-rule="evenodd" clip-rule="evenodd" d="M49.6222 60.728C45.8229 60.8166 11.9446 60.8884 11.0453 60.7488C10.4765 60.6607 9.83955 59.3848 11.4982 59.3838C14.6291 59.3818 50.1799 59.3585 50.6297 59.439C50.7589 59.4623 52.1085 60.5757 49.6222 60.728Z" fill="white"/>
<path fill-rule="evenodd" clip-rule="evenodd" d="M33.8654 34.4025C11.1749 34.4004 11.1728 34.4055 10.879 34.3164C10.7489 34.2774 9.44807 33.0547 12.007 33.0532C15.0565 33.0512 47.6717 33.0304 50.129 33.1013C51.201 33.1321 51.3007 34.2142 50.5773 34.4343C50.101 34.5791 36.8188 34.4632 33.8654 34.4025Z" fill="white"/>
<path fill-rule="evenodd" clip-rule="evenodd" d="M34.8823 20.9848C35.1796 20.9858 38.4685 20.9979 38.5804 21.3679C39.1482 23.2404 37.522 22.54 14.0411 22.3902C13.758 22.3887 9.43611 22.3608 10.7217 21.174C10.8971 21.0121 10.9255 20.9539 34.8823 20.9848Z" fill="white"/>
<path fill-rule="evenodd" clip-rule="evenodd" d="M12.0043 55.0982C18.3778 55.0436 30.8253 55.0957 31.3413 55.1078C32.7321 55.1412 32.8175 56.492 31.3281 56.5021C29.6994 56.5128 11.6993 56.6322 10.9668 56.4146C10.8382 56.3766 9.34419 55.076 12.0043 55.0982Z" fill="white" fill-opacity="0.95"/>
<path fill-rule="evenodd" clip-rule="evenodd" d="M22.6824 18.1268C22.4928 18.1238 19.1637 18.0681 20.6607 16.8996C20.9805 16.6501 25.4909 16.7442 37.9324 16.7659C38.2928 16.7665 42.1576 16.773 42.3976 17.4021C42.9573 18.8713 41.5598 18.2407 22.6824 18.1268Z" fill="white" fill-opacity="0.94"/>
<path fill-rule="evenodd" clip-rule="evenodd" d="M13.0234 63.7134C20.0669 63.7189 29.7826 63.7174 30.3225 63.722C35.4526 63.767 29.9189 65.0885 29.8014 65.0885C10.897 65.1011 10.4655 65.1993 10.4085 64.4629C10.3567 63.7938 12.8058 63.72 13.0234 63.7134Z" fill="white" fill-opacity="0.98"/>
<path fill-rule="evenodd" clip-rule="evenodd" d="M46.574 41.883C46.9075 41.8835 50.4074 41.8876 50.7418 42.003C51.273 42.1867 51.2207 42.6371 51.2131 42.7044C51.1495 43.253 47.8835 43.2449 47.5902 43.2444C39.6937 43.2257 32.7062 43.378 32.3732 43.1442C29.7446 41.299 35.7262 41.885 46.574 41.883Z" fill="white" fill-opacity="0.99"/>
<path fill-rule="evenodd" clip-rule="evenodd" d="M12.515 41.7838C26.7112 41.8091 30.5425 41.4685 28.6383 43.0439C28.4039 43.2378 10.5645 43.6776 10.3962 42.7155C10.2478 41.8668 12.3294 41.7908 12.515 41.7838Z" fill="white"/>
<path fill-rule="evenodd" clip-rule="evenodd" d="M37.9319 55.1179C38.9094 55.1104 48.0752 55.0385 50.1492 55.1291C51.5705 55.1913 51.5969 56.495 50.1406 56.536C49.0029 56.5684 36.5584 56.9202 35.9189 56.3351C34.6277 55.1529 37.7433 55.12 37.9319 55.1179Z" fill="white" fill-opacity="0.96"/>
<path fill-rule="evenodd" clip-rule="evenodd" d="M42.5577 21.1259C43.1977 21.1117 50.3143 20.9568 50.5568 21.0965C53.5778 22.84 42.5053 22.6148 42.0905 22.3289C41.4343 21.8759 41.9944 21.7843 42.5577 21.1259Z" fill="white" fill-opacity="0.99"/>
<path fill-rule="evenodd" clip-rule="evenodd" d="M14.5486 18.1353C10.977 18.0219 10.883 18.2127 10.6318 17.7962C9.66449 16.1944 16.6119 16.6752 16.9728 17.0016C18.1171 18.0376 14.7626 18.1292 14.5486 18.1353Z" fill="white" fill-opacity="0.98"/>
<path fill-rule="evenodd" clip-rule="evenodd" d="M47.5903 18.1854C45.9957 17.9192 44.5317 18.19 45.7309 17.0492C46.4024 16.4111 51.8019 16.5386 50.6688 17.9177C50.3501 18.3059 50.2652 18.1136 47.5903 18.1854Z" fill="white" fill-opacity="0.99"/>
<path fill-rule="evenodd" clip-rule="evenodd" d="M1.33664 1.20146C-1.53799 1.19893 1.07485 -0.0197503 1.36409 0.000493583C2.90892 0.10728 1.41594 1.1463 1.33664 1.20146Z" fill="white" fill-opacity="0.88"/>
</g>
<defs>
<clipPath id="clip0_82_355">
<rect width="61" height="83" fill="white"/>
</clipPath>
</defs>
</svg>
