<svg id="Camada_1" data-name="Camada 1" xmlns="http://www.w3.org/2000/svg" viewBox="0 0 450 500"><defs><style>.cls-1{fill:#fff;}.cls-2{fill:#f6f6f6;}</style></defs><line class="cls-1" x1="244.99" y1="230.82" x2="244.29" y2="229.44"/><line class="cls-1" x1="207.59" y1="264.17" x2="207.32" y2="264.68"/><line class="cls-1" x1="101.99" y1="329.58" x2="101.83" y2="329.94"/><line class="cls-1" x1="207.59" y1="227.01" x2="207.51" y2="226.85"/><line class="cls-1" x1="360.38" y1="419.51" x2="359.16" y2="419.55"/><polygon class="cls-2" points="39.13 41.33 38.93 77.67 22.19 77.75 22.39 41.41 39.13 41.33"/><path class="cls-2" d="M259.61,222.64,208,120.62v0l-.15-.28L93,347.38l-74.65.07.24-51.74,24.28-.12,8.49-16.73-49.43.23-.35,85.14,83-.11L39.83,453.69l18.23-.11,16.58-32.77,230.42-1L216.89,245.25l-9.17-20.08-9.52,20.42L118.13,403.88l-35,.15,124.7-246.72L356.92,452.24l20-.08Zm-67.69,72.53,8.44-16.7,2.52-5,4.44-8.8v-1.06l.27.51,2.63,5.23,4.56,9,8.41,16.66L239,326.25l1.38,2.71L239,329l-31.94.11-32.37.16Zm-34.7,68.59L165.67,347l41.29-.16,31.94-.16,10.41,0,6.21,12.3v0l2.2,4.32,20.16,39.84-22.56.08-16.69.08-31.94.15-69.7.32Zm203.16,55.75L330.6,363m-8.45-16.66-55-108.75"/><polygon class="cls-2" points="317.48 43.39 317.4 61.11 275.6 61.3 274.99 162.79 258.43 162.78 258.98 43.66 317.48 43.39"/><polygon class="cls-2" points="191.64 76.97 114.24 230.03 5.69 230.54 5.77 213.84 103.91 213.41 163.86 94.8 73.9 95.24 73.97 77.52 191.64 76.97"/><path class="cls-2" d="M317.72,144.87l62.86-55,.11-22.36L290.1,146.72,290,162.67l90.24-.44L380.18,179l16.71-.14.19-34.35Zm-.71.59.67-.59"/><polygon class="cls-2" points="106.53 123.62 81.43 173.28 8.63 173.6 8.71 156.86 71.09 156.59 87.71 123.7 106.53 123.62"/><polygon class="cls-2" points="4.04 417.8 4.23 454.14 20.97 454.22 20.77 417.88 4.04 417.8"/><polygon class="cls-2" points="282.81 199.08 360.21 352.14 442.58 351.94 442.5 335.24 370.54 335.53 310.59 216.92 400.56 217.35 400.48 199.63 282.81 199.08"/><polygon class="cls-2" points="367.05 245.74 392.15 295.4 438.65 295.45 438.57 278.71 402.48 278.7 385.87 245.82 367.05 245.74"/><polygon class="cls-2" points="378.4 402.86 403.5 452.52 450 452.57 449.92 435.83 413.83 435.82 397.22 402.94 378.4 402.86"/></svg>