<svg width="56" height="54" viewBox="0 0 56 54" fill="none" xmlns="http://www.w3.org/2000/svg">
<g clip-path="url(#clip0_61_24)">
<mask id="mask0_61_24" style="mask-type:luminance" maskUnits="userSpaceOnUse" x="0" y="0" width="56" height="54">
<path d="M55.3975 0H0V53.4538H55.3975V0Z" fill="white"/>
</mask>
<g mask="url(#mask0_61_24)">
<path fill-rule="evenodd" clip-rule="evenodd" d="M27.6988 0C42.9968 0 55.3975 12.2675 55.3975 27.4029C55.3975 39.5075 47.4701 49.776 36.471 53.4029C35.0666 53.6728 34.5681 52.8171 34.5681 52.0874C34.5681 51.184 34.6013 48.2335 34.6013 44.5665C34.6013 42.0114 33.7149 40.3438 32.7206 39.4939C38.8891 38.8151 45.3706 36.4976 45.3706 25.9726C45.3706 22.9792 44.2959 20.5365 42.5176 18.6175C42.8057 17.9252 43.7557 15.138 42.2462 11.3642C42.2462 11.3642 39.925 10.6299 34.6373 14.1739C32.4242 13.5672 30.0532 13.2619 27.6988 13.2512C25.3444 13.2619 22.9761 13.5672 20.7658 14.1739C15.4725 10.6299 13.1458 11.3642 13.1458 11.3642C11.6418 15.138 12.5919 17.9252 12.8772 18.6175C11.1072 20.5365 10.0242 22.9792 10.0242 25.9726C10.0242 36.4709 16.4918 38.8239 22.6437 39.5161C21.8516 40.2003 21.1342 41.4073 20.8849 43.1793C19.306 43.8795 15.2953 45.0914 12.8245 40.9033C12.8245 40.9033 11.3593 38.2704 8.57831 38.078C8.57831 38.078 5.87768 38.0433 8.38996 39.7432C8.38996 39.7432 10.2042 40.5851 11.4645 43.7522C11.4645 43.7522 13.0904 48.6432 20.7962 46.9861C20.8101 49.2766 20.835 51.4353 20.835 52.0874C20.835 52.8117 20.3254 53.6594 18.9432 53.4055C7.9357 49.784 0 39.5102 0 27.4029C0 12.2675 12.4035 0 27.6988 0Z" fill="white"/>
</g>
</g>
<defs>
<clipPath id="clip0_61_24">
<rect width="55.3975" height="53.4538" fill="white"/>
</clipPath>
</defs>
</svg>
