<svg width="88" height="98" viewBox="0 0 88 98" fill="none" xmlns="http://www.w3.org/2000/svg">
<path fill-rule="evenodd" clip-rule="evenodd" d="M76.0005 40.2606C75.8113 45.1606 76.2699 53.5382 75.7053 54.6534C74.637 56.7636 70.0973 64.8431 67.3102 70.3627C66.7813 71.41 57.2091 78.9907 53.3305 82.7178C53.1782 82.864 53.1076 82.7611 51.3302 84.4374C50.2205 85.4836 50.1571 85.3764 49.0471 86.4456C48.8873 86.5994 47.2436 87.7643 45.3316 89.5965C43.9865 90.8854 43.3659 90.2916 43.2405 90.1716C40.1745 87.2382 38.4879 86.3977 37.8008 85.5873C35.9079 83.3545 21.2548 72.0556 20.2188 70.0228C16.6393 62.9995 16.4765 63.1118 12.8671 56.0868C11.5471 53.5178 12.0613 53.3812 12.0042 49.717C11.9739 47.7691 11.7722 34.8276 11.9953 25.3635C12.0139 24.5757 12.3945 24.6351 17.0002 24.6396C18.1156 24.6408 19.0119 24.9336 18.4071 23.9405C16.5971 20.9681 12.9893 17.3707 13.6456 16.2308C14.6628 14.4643 15.2836 14.9454 17.3816 11.9747C17.5959 11.6713 17.6608 11.7332 20.6536 8.68026C21.7956 7.51515 22.0376 6.64289 23.5708 6.62713C24.1271 6.6214 64.0553 6.62512 64.7171 6.63085C65.4339 6.63716 65.3851 6.8217 71.2005 12.8349C71.4262 13.0682 71.3428 13.1404 73.9036 15.8606C74.973 16.9965 73.6619 17.7183 73.1371 18.5625C72.0028 20.3881 68.2533 24.5972 69.2153 24.6236C75.333 24.7909 75.9591 24.2838 75.9673 25.3557C75.9896 28.2086 75.9116 37.2263 76.0005 40.2606L50.7148 19.4743C48.4808 19.4944 32.9808 19.5095 32.6948 19.4474C31.8542 19.2648 30.4028 16.5097 29.9493 17.1263C29.9011 17.1919 24.6453 30.7876 24.3608 31.6372C23.7288 33.5253 24.5088 33.474 26.6388 37.7204C30.3039 45.0274 30.5122 45.6211 30.9025 45.0652C31.0599 44.8408 33.4202 38.2972 33.6333 37.7066C34.2365 36.0343 34.2145 35.8721 33.2293 34.8695C32.1588 33.78 32.2956 33.6829 31.223 32.5882C31.2042 32.5688 28.2799 30.1196 29.5613 29.6371C29.7453 29.5677 36.8216 29.3869 37.1913 29.7526C37.6868 30.2426 36.2236 33.0785 34.163 39.1222C32.9319 42.7333 32.6759 42.6215 31.4993 46.2492C31.3176 46.8097 31.3291 46.8977 34.6565 52.9032C35.7808 54.9325 35.9148 54.9632 36.1139 55.009C36.2299 55.0357 43.1776 52.8422 43.3036 52.5954C43.4113 52.3848 43.7722 50.3231 42.9533 49.474C42.5719 49.0783 42.6962 48.8777 40.6548 46.9103C39.2139 45.5217 36.4256 43.0293 38.9996 43.0124C48.4973 42.9502 48.5359 42.788 49.2942 43.1101C50.9765 43.8247 47.6796 45.7698 45.7573 48.4866C45.5779 48.7405 44.3393 49.6918 44.3062 50.2724C44.2682 50.9337 44.099 52.4883 44.6625 52.7175C44.8639 52.7995 51.5496 55.0363 51.5711 55.0397C52.0636 55.1211 56.4399 47.0524 56.3145 46.5762C56.1196 45.8366 54.0893 40.526 53.9362 40.2222C53.2591 38.8772 51.0185 32.065 50.7831 31.3495C50.7736 31.3206 50.0765 29.9147 50.9745 29.8296C51.5788 29.7723 60.1116 28.788 58.3368 30.7303C53.6633 35.8446 53.3348 35.9271 53.7111 36.7627C53.8762 37.1298 56.5396 44.2869 56.6368 44.5918C56.8368 45.2194 57.1522 45.3503 57.4388 44.7721C63.1259 33.2989 64.0788 33.3318 63.3622 31.9126C63.3285 31.8458 62.2136 28.4224 61.6496 27.3263C61.5619 27.1561 59.0053 20.2196 58.7773 19.601C57.8688 17.1363 57.7848 17.1048 57.563 17.0999C57.0451 17.0885 56.9433 17.7819 56.3471 18.4029C54.8776 19.9328 54.4819 19.4603 53.2856 19.474C51.9876 19.4838 52.0111 19.4995 50.7145 19.4737L76.0002 40.26L64.3428 34.3035C64.2731 34.3368 63.9702 34.078 63.7096 34.6053C62.0856 37.8931 62.0928 37.8645 60.3745 41.0873C60.1428 41.522 57.5753 46.3372 57.5079 46.5383C56.8008 48.6508 55.7988 49.6122 52.639 55.6945C52.371 56.2105 52.3439 56.2057 47.2085 60.5151C44.6836 62.6338 44.585 62.588 44.5345 62.917C44.0388 66.1481 44.5419 68.6121 44.5853 68.9454C44.6793 69.6655 45.525 69.3483 46.2813 70.5529C47.7713 72.9261 46.7933 73.0665 46.2065 74.399C45.6185 75.7343 50.7242 76.5776 46.0673 80.8607C45.3476 81.5226 44.5293 80.9349 44.5276 82.3826C44.521 87.9167 44.4505 87.9115 44.4805 88.3912C44.5253 89.1053 45.0353 88.5517 45.0679 88.5162C46.0325 87.4688 46.5653 87.2579 46.6516 87.182C48.7505 85.3329 48.7739 85.3635 48.9453 85.191C50.0282 84.1019 50.153 84.2609 51.2322 83.1872C51.8985 82.5241 51.9628 82.6353 52.6513 82.0238C59.0679 76.3246 59.1165 76.3931 59.6505 75.873C60.7531 74.7996 60.8476 74.9228 61.2251 74.5761C65.4656 70.6753 65.9996 70.9575 66.029 69.7724C66.0393 69.3612 66.0536 49.4852 66.0413 40.8329C66.0365 37.4054 65.4553 37.5304 64.3425 34.3032L75.9999 40.2598L23.4088 34.0815C22.3551 37.6 21.6728 37.4553 21.6836 41.1183C21.7368 58.9179 21.4813 70.1297 21.9156 70.585C23.3939 72.135 23.6708 71.7834 42.2073 88.0391C43.3242 89.0185 43.4659 88.4938 43.4868 88.3895C43.5265 88.1898 43.4319 82.596 43.4233 82.0923C43.4222 82.0227 43.4113 81.3751 42.9873 81.3395C41.799 81.2404 39.1145 81.7585 38.8899 80.6848C38.8833 80.6535 38.6933 69.5428 39.0245 69.2271C39.3928 68.876 43.351 69.4666 43.415 68.6586C43.4579 68.1187 43.4125 66.9685 43.4416 63.4717C43.451 62.3264 42.3488 62.0536 41.2276 60.9495C40.1768 59.9148 40.0645 60.0881 38.0813 58.3846C36.7428 57.235 36.0825 57.5963 34.7885 55.1211C31.6091 49.0388 30.7951 48.4413 30.2093 46.8229C29.8779 45.9071 29.7445 45.9767 24.6685 35.9841C24.3759 35.4079 24.3113 35.4646 24.021 34.8741C23.7731 34.3697 23.9751 34.0981 23.4085 34.0809L75.9996 40.2592L12.8636 47.7092C12.8625 49.8643 12.8676 49.8486 12.7693 51.9977C12.6988 53.5433 13.9448 50.6096 14.6485 49.6663C15.2151 48.9067 16.9579 45.6988 17.1485 45.348C20.2316 39.6738 20.6439 39.856 22.5671 33.7029C22.8676 32.7418 23.0793 32.8238 27.0608 21.9455C27.9576 19.4952 29.4696 16.6933 27.8356 18.733C26.2679 20.6898 19.1545 27.6458 17.7565 29.5692C17.3791 30.0884 12.9139 34.1419 12.8745 34.7967C12.8296 35.5434 12.8565 47.3524 12.8636 47.7092L75.9996 40.2592L59.4205 18.5774C59.4179 18.9877 59.6193 18.9316 61.2211 23.3791C61.3048 23.6115 62.0165 25.5881 62.3533 26.2535C62.763 27.0636 66.9431 39.8107 69.4799 43.1975C69.7945 43.6173 73.1982 49.7483 73.5159 50.3208C73.7336 50.7128 73.7708 50.6707 73.9836 51.0822C74.3213 51.7346 74.1996 51.9805 74.931 51.9796C74.7579 44.6104 75.1673 34.9248 74.6499 34.2949C74.145 33.6803 71.8425 31.6931 71.1479 30.6002C70.9136 30.2317 60.955 20.0388 59.7728 18.6058C59.6553 18.5963 59.5379 18.5869 59.4205 18.5774L75.999 40.2592L67.0019 68.3388C67.1516 68.3095 67.3013 68.2803 67.451 68.2514C68.4699 65.5013 70.0319 63.3737 71.4393 60.5389C73.4576 56.4736 75.2788 54.6425 74.3628 53.4898C73.9508 52.9711 71.9182 49.3015 71.7139 48.9328C71.5139 48.5714 69.747 45.3818 69.0893 44.4872C68.7945 44.0861 66.8919 39.8769 67.0122 41.6939C67.1851 44.3058 67.1416 65.9667 67.0022 68.339L75.9993 40.2595L20.6931 41.42C20.3011 41.4931 20.2851 41.4681 20.2696 41.4991C15.1505 51.7163 13.8785 51.9324 13.2022 53.9812C12.8551 55.0328 18.2962 63.2273 20.2813 68.223C20.4031 68.2445 20.5248 68.266 20.6468 68.2875C20.6919 67.9536 20.4696 44.8208 20.7319 41.6853L20.6931 41.42L75.9996 40.2592L63.8282 7.66129C57.559 7.87305 55.8165 7.17157 54.6351 8.37336C54.181 8.83528 54.2733 8.90835 49.0671 14.2496C48.015 15.3291 48.1571 15.4403 46.6353 16.9704C46.1651 17.4432 44.663 18.5642 46.1522 18.629C46.2919 18.635 51.0565 18.5923 54.141 18.6333C55.197 18.6473 54.9945 18.1917 57.3636 15.6916C57.7091 15.3271 57.6793 15.3073 61.4913 10.9609C63.8353 8.28854 63.8319 7.9848 63.8285 7.661L75.9999 40.2592L36.4285 18.6167C40.2448 18.6144 40.2396 18.6238 40.4405 18.604C41.9668 18.4539 43.0119 18.8327 42.2731 18.1258C41.0476 16.9529 41.2176 16.8237 40.3628 15.9666C32.775 8.35932 33.101 7.69768 31.8553 7.69166C24.761 7.65756 24.7591 7.54753 24.1508 7.64696C23.1471 7.81115 24.0982 8.23525 26.335 10.8231C26.6185 11.1509 26.4933 11.2157 26.7868 11.5409C29.5236 14.5777 29.5651 14.5405 29.7673 14.8325C30.7771 16.2904 31.0353 16.0624 31.9982 17.5378C32.9413 18.9832 34.0993 18.6189 36.4285 18.6167L75.9999 40.2592L58.7213 15.6185C58.7325 15.6417 58.5856 15.758 59.0076 16.1285C59.6696 16.1185 66.939 16.0093 67.2839 16.0417C70.4256 16.336 71.0525 15.8649 72.1416 16.1661C73.4582 16.5303 72.2996 15.5726 72.2605 15.5403C71.7722 15.1365 71.8951 15.0245 66.7982 9.80153C66.3162 9.30752 65.4756 7.09793 63.995 9.39606C63.613 9.98893 59.383 14.6525 58.7211 15.6182L75.9996 40.2589L15.3193 15.6383C15.4056 15.8042 15.4922 15.9701 15.5785 16.136C17.7125 16.0208 27.9182 16.1228 28.9911 16.1337C29.1382 16.1351 29.5685 15.9712 29.1113 15.5483C28.0802 14.5946 27.8765 14.0728 27.7788 13.9648C25.5288 11.479 25.5628 11.4546 25.359 11.2469C24.0773 9.93793 24.2953 9.75912 22.9453 8.51234C22.0285 7.66559 18.7079 12.5673 15.3193 15.6383L75.9996 40.2589L17.4733 20.8538C18.6571 22.8095 18.8262 22.6693 20.0462 24.5798C20.7693 25.7122 20.9256 24.3938 27.0785 18.2731C27.6508 17.7037 28.3159 17.6865 27.6811 17.1939C27.5636 17.1028 17.1233 17.1965 16.1413 17.1667C15.7682 17.1553 14.6113 16.7724 15.3033 17.8971C16.2071 19.3666 17.2833 20.6302 17.4733 20.8538L75.9996 40.2589L43.4291 76.3633C43.4228 76.6639 43.6648 78.8299 42.6988 78.7563C41.8885 78.6947 42.5333 77.2507 42.5622 72.6396C42.5628 72.531 42.5739 70.7638 43.2859 71.4914C43.7385 71.9536 42.529 75.4289 44.9325 74.2305C46.6305 73.3838 46.2079 70.2807 43.8528 70.1589C40.0253 69.9609 39.8979 70.0271 39.8528 70.3452C39.773 70.9103 39.9419 70.9137 39.7882 71.4696C39.7448 71.6261 39.7502 71.6069 39.7359 73.5001C39.7316 74.0749 39.9282 74.0655 39.7882 74.6222C39.7036 74.9586 39.5753 80.0472 40.0702 80.2165C40.3039 80.2965 43.5536 80.2632 43.8565 80.2604C45.3148 80.2455 45.4282 80.3105 46.3628 79.1755C47.2133 78.1428 47.1879 75.9315 44.9939 75.6017C44.5639 75.5369 44.5885 75.5403 44.1633 75.4329C43.209 75.1919 43.4288 76.3627 43.4288 76.3633L75.999 40.2589L67.5062 24.7127C69.3836 21.7684 71.687 18.9107 72.0773 18.4267C73.4696 16.6994 71.7116 17.1644 71.5693 17.1661C60.4022 17.3002 59.5039 16.7466 59.889 17.6011C60.0353 17.9255 60.1579 17.8235 63.0471 20.7259C66.5845 24.2795 66.375 24.7769 67.5062 24.7127L75.999 40.2589L44.2882 14.7554C44.253 17.0168 44.1248 18.1811 44.9525 17.2874C46.9016 15.1829 47.1396 15.4288 48.8053 13.1189C49.4882 12.1722 50.5868 11.818 52.5222 9.10865C52.6031 8.99546 54.3162 7.61229 53.2776 7.64524C46.2456 7.86818 44.3908 7.34408 44.3016 8.13782C44.293 8.21519 44.2965 8.2149 44.2879 14.756L75.9988 40.2595L34.4342 7.64037C34.3453 7.80972 34.2562 7.97878 34.1673 8.14814C34.3242 8.28654 35.7548 9.54707 36.0482 9.96572C37.2842 11.7291 37.4162 11.5925 38.9202 13.1146C40.9248 15.144 40.7942 15.2291 42.7542 17.2865C42.9336 17.3045 43.1128 17.3226 43.2922 17.3407C43.5159 16.3827 43.4162 16.3816 43.417 14.7563C43.4208 8.70032 43.4968 8.70032 43.433 8.17794C43.3408 7.42202 42.9359 7.80256 34.4345 7.64008L75.999 40.2592L68.1625 25.4921C67.9748 26.2011 68.2796 26.175 71.3319 29.3239C72.2602 30.2815 72.1325 30.3764 73.0605 31.314C73.1379 31.3922 74.6516 33.1198 74.9199 32.7754C75.1433 32.4885 74.8953 32.4616 74.8953 28.2241C74.8953 27.7183 75.0102 25.6827 74.7056 25.6603C73.6836 25.5861 73.6913 25.5277 68.1622 25.4918L75.9988 40.2589L48.4596 55.0214C47.4453 54.6815 44.6808 53.7087 44.4065 53.9932C44.1056 54.3053 44.2882 54.3603 44.2933 55.7329C44.3099 60.2916 44.0462 62.0731 44.7753 61.2934C45.771 60.2288 45.9153 60.4137 46.9433 59.3998C47.6119 58.7408 47.6708 58.85 48.3639 58.2376C49.2085 57.4911 49.2288 57.547 50.0785 56.8046C51.3376 55.7045 50.1213 55.5695 48.4596 55.0214L75.999 40.2589L43.4205 59.4572C43.4579 57.0112 43.4288 57.0292 43.4211 54.5815C43.4179 53.5577 42.6748 53.9694 41.2502 54.444C40.9339 54.5494 37.7299 55.6165 37.295 55.7564C35.6265 56.2922 38.0911 56.7057 42.7725 61.1051C43.7282 62.0031 43.3428 60.7696 43.4205 59.4572L75.999 40.2589L19.271 25.6941C16.2808 25.4938 16.3013 25.6076 13.2962 25.7133C12.8191 25.7303 12.8136 27.2217 12.9276 27.6733C13.2679 29.0193 12.7519 29.0167 12.8519 30.2219C12.9979 31.9839 12.3179 33.7757 13.5411 32.4914C14.0208 31.9879 19.5105 26.2251 19.5399 26.1988C19.5182 26.1403 19.7056 26.0541 19.271 25.6941L75.9988 40.2589L40.9185 45.7827C43.6051 48.474 43.657 49.256 44.3756 48.517C45.6576 47.198 45.6202 47.1837 46.807 45.783C47.0331 45.5162 49.1879 43.9852 47.2833 44.0789C47.1979 44.0832 40.5508 44.0809 40.4282 44.0769C40.3582 44.0746 39.0628 44.0322 39.7442 44.6262C39.9353 44.793 40.8256 45.689 40.9185 45.7827L75.9988 40.2595L54.5053 33.4594C54.7136 33.2493 57.0622 30.8821 57.069 30.7965C57.0988 30.4251 56.8433 30.5623 52.4288 30.6397C50.9093 30.6664 52.4351 32.8871 52.8565 34.2818C53.2373 35.542 53.5908 34.3967 54.5053 33.4594L75.9988 40.2595L35.425 32.5567C35.851 31.3246 36.3936 30.6242 35.2828 30.6268C32.4851 30.6337 31.1333 30.5265 31.0225 30.8108C30.9402 31.0217 33.7131 34.0436 34.1905 34.4634C34.295 34.5554 34.6728 34.8199 35.2556 33.084C35.3485 32.8077 35.3402 32.8212 35.425 32.5567L75.9988 40.2595L20.6925 41.4197L20.7311 41.6851C20.7488 41.6266 21.1482 40.3174 20.5085 40.9555C20.4105 41.0532 20.4376 41.1217 20.4433 41.136C20.5156 41.3183 20.6148 41.224 20.6925 41.4197L75.9988 40.2595L20.2808 68.2227C20.3136 68.2691 20.6931 68.8035 20.6931 68.8035C21.0445 68.8018 20.6776 68.6339 20.6462 68.2872C20.5245 68.2657 20.4028 68.2442 20.2808 68.2227L75.9988 40.2595L42.7542 17.2865C42.8525 17.3811 42.9065 17.5157 43.0048 17.6103C43.0302 17.6347 43.4262 18.0152 43.4422 17.5782C43.4456 17.4845 43.2888 17.4344 43.2922 17.3407C43.1128 17.3226 42.9336 17.3045 42.7542 17.2865L75.9988 40.2595L19.5319 25.7225L19.7319 25.9159C19.785 25.7145 19.9468 25.8477 20.0005 25.644C20.0888 25.3087 19.8779 25.6646 19.5319 25.7225L75.9988 40.2595L76.0005 40.2606Z" fill="white" fill-opacity="0.92"/>
<path fill-rule="evenodd" clip-rule="evenodd" d="M50.7148 19.4744C50.8503 19.3921 50.856 19.562 51.0008 19.4741C51.2063 19.3491 51.0626 19.2153 51.2863 19.1271C51.464 19.0568 51.6683 19.1239 51.8588 19.1354C52.9291 19.199 52.9237 19.1597 53.0114 19.1884C53.1368 19.2296 53.1608 19.4334 53.2863 19.4746C51.9883 19.4844 52.0114 19.5001 50.7148 19.4744Z" fill="white" fill-opacity="0.56"/>
<path fill-rule="evenodd" clip-rule="evenodd" d="M67.0035 68.3401C67.1532 68.3109 67.3029 68.2816 67.4526 68.2527C67.126 68.718 66.848 69.1725 66.8389 68.5997C66.8372 68.4971 67.0052 68.4427 67.0035 68.3401Z" fill="white" fill-opacity="0.26"/>
<path fill-rule="evenodd" clip-rule="evenodd" d="M59.4218 18.5787C59.3273 18.3206 59.0153 18.2002 59.295 18.2317C59.295 18.2317 59.7361 18.577 59.7747 18.6071C59.6573 18.5977 59.5393 18.5882 59.4218 18.5787Z" fill="white" fill-opacity="0.51"/>
<path fill-rule="evenodd" clip-rule="evenodd" d="M58.7218 15.6199C58.7329 15.6431 58.5861 15.7594 59.0081 16.1299C58.5869 15.9259 58.5566 15.9506 58.5543 15.9101C58.5483 15.7987 58.7278 15.7316 58.7218 15.6199Z" fill="white" fill-opacity="0.07"/>
<path fill-rule="evenodd" clip-rule="evenodd" d="M19.2725 25.6956L19.5336 25.7234L19.7336 25.9168L19.5416 26.2002C19.5199 26.1417 19.707 26.0555 19.2725 25.6956Z" fill="white" fill-opacity="0.07"/>
<path fill-rule="evenodd" clip-rule="evenodd" d="M34.4358 7.64111C34.347 7.81046 34.2578 7.97953 34.169 8.14888C34.1698 8.03512 33.9853 7.97523 33.9858 7.86147C33.9861 7.82135 34.0178 7.84571 34.4358 7.64111Z" fill="white" fill-opacity="0.13"/>
<path fill-rule="evenodd" clip-rule="evenodd" d="M15.3203 15.6399C15.4065 15.8058 15.4931 15.9717 15.5794 16.1376C15.5431 16.1204 15.126 15.9239 15.126 15.9239C15.1254 15.809 15.3205 15.7545 15.3203 15.6399Z" fill="white" fill-opacity="0.11"/>
</svg>
