<svg width="56" height="56" viewBox="0 0 56 56" fill="none" xmlns="http://www.w3.org/2000/svg">
<path d="M38.9462 19.1901C38.4601 17.9313 37.4645 16.9367 36.2051 16.452C35.3476 16.1344 34.4419 15.9665 33.5276 15.9557C32.007 15.8865 31.5512 15.8691 27.6993 15.8691C23.8475 15.8691 23.3916 15.8865 21.871 15.9557C20.9557 15.9662 20.049 16.134 19.1906 16.452C17.9318 16.938 16.9372 17.9337 16.4525 19.193C16.1349 20.0505 15.967 20.9562 15.9562 21.8705C15.8869 23.3911 15.8696 23.847 15.8696 27.6988C15.8696 31.5507 15.8869 32.0066 15.9562 33.5271C15.9667 34.4424 16.1345 35.3491 16.4525 36.2075C16.9385 37.4664 17.9341 38.461 19.1935 38.9457C20.051 39.2633 20.9567 39.4311 21.871 39.4419C23.3916 39.5112 23.8475 39.5285 27.6993 39.5285C31.5512 39.5285 32.007 39.5112 33.5276 39.4419C34.4429 39.4315 35.3496 39.2636 36.208 38.9457C37.4668 38.4596 38.4615 37.464 38.9462 36.2046C39.2637 35.3471 39.4316 34.4414 39.4424 33.5271C39.5117 32.0066 39.529 31.5507 39.529 27.6988C39.529 23.847 39.5117 23.3911 39.4424 21.8705C39.432 20.9552 39.2641 20.0485 38.9462 19.1901ZM27.6993 35.1082C23.6072 35.1082 20.2899 31.7909 20.2899 27.6988C20.2899 23.6067 23.6072 20.2894 27.6993 20.2894C31.7914 20.2894 35.1087 23.6067 35.1087 27.6988C35.1087 31.7909 31.7914 35.1082 27.6993 35.1082ZM35.4001 21.7292C34.444 21.7292 33.669 20.9541 33.669 19.998C33.669 19.0419 34.444 18.2668 35.4001 18.2668C36.3562 18.2668 37.1313 19.0419 37.1313 19.998C37.1313 20.9541 36.3562 21.7292 35.4001 21.7292Z" fill="white"/>
<path d="M27.6975 32.5087C30.3538 32.5087 32.5072 30.3553 32.5072 27.6989C32.5072 25.0426 30.3538 22.8892 27.6975 22.8892C25.0411 22.8892 22.8877 25.0426 22.8877 27.6989C22.8877 30.3553 25.0411 32.5087 27.6975 32.5087Z" fill="white"/>
<path d="M27.6988 0C12.4012 0 0 12.4012 0 27.6988C0 42.9964 12.4012 55.3975 27.6988 55.3975C42.9964 55.3975 55.3975 42.9964 55.3975 27.6988C55.3975 12.4012 42.9964 0 27.6988 0ZM42.0386 33.6482C42.0139 34.8444 41.7866 36.0278 41.3664 37.1481C40.6171 39.0855 39.0855 40.6171 37.1481 41.3664C36.0278 41.7866 34.8444 42.0139 33.6482 42.0386C32.1075 42.1079 31.617 42.1252 27.6988 42.1252C23.7805 42.1252 23.29 42.1079 21.7493 42.0386C20.5531 42.0139 19.3697 41.7866 18.2494 41.3664C16.312 40.6171 14.7804 39.0855 14.0312 37.1481C13.6109 36.0278 13.3836 34.8444 13.3589 33.6482C13.2896 32.1075 13.2723 31.617 13.2723 27.6988C13.2723 23.7805 13.2896 23.29 13.3589 21.7493C13.3836 20.5531 13.6109 19.3697 14.0312 18.2494C14.7804 16.312 16.312 14.7804 18.2494 14.0312C19.3697 13.6109 20.5531 13.3836 21.7493 13.3589C23.29 13.2896 23.7805 13.2723 27.6988 13.2723C31.617 13.2723 32.1075 13.2896 33.6482 13.3589C34.8444 13.3836 36.0278 13.6109 37.1481 14.0312C39.0855 14.7804 40.6171 16.312 41.3664 18.2494C41.7866 19.3697 42.0139 20.5531 42.0386 21.7493C42.1079 23.29 42.1252 23.7805 42.1252 27.6988C42.1252 31.617 42.1079 32.1075 42.0386 33.6482Z" fill="white"/>
</svg>
