<svg width="56" height="56" viewBox="0 0 56 56" fill="none" xmlns="http://www.w3.org/2000/svg">
<g clip-path="url(#clip0_61_2)">
<path d="M27.6988 0C12.3995 0 0 12.3995 0 27.6988C0 42.998 12.3995 55.3975 27.6988 55.3975C42.998 55.3975 55.3975 42.998 55.3975 27.6988C55.3975 12.3995 42.998 0 27.6988 0ZM19.9518 39.2868H14.5527V22.0075H19.9518V39.2868ZM17.1062 19.8436H17.0629C15.1045 19.8436 13.8386 18.5236 13.8386 16.8465C13.8386 15.1369 15.1478 13.8494 17.1386 13.8494C19.1295 13.8494 20.3521 15.1369 20.3954 16.8465C20.4062 18.5127 19.1403 19.8436 17.1062 19.8436ZM41.5481 39.2868H35.4241V30.3496C35.4241 28.0125 34.472 26.4112 32.3621 26.4112C30.75 26.4112 29.8519 27.4932 29.4408 28.5319C29.2893 28.8998 29.3109 29.4191 29.3109 29.9493V39.2868H23.241C23.241 39.2868 23.3167 23.4466 23.241 22.0075H29.3109V24.7233C29.668 23.5331 31.6047 21.8452 34.6992 21.8452C38.5402 21.8452 41.5481 24.3338 41.5481 29.6788V39.2868Z" fill="white"/>
</g>
<defs>
<clipPath id="clip0_61_2">
<rect width="55.3975" height="55.3975" fill="white"/>
</clipPath>
</defs>
</svg>
