<svg width="314" height="128" viewBox="0 0 314 128" fill="none" xmlns="http://www.w3.org/2000/svg">
<path d="M122.448 30.6H125.968L134.064 53H130.288L128.368 47.688H120.016L118.096 53H114.32L122.448 30.6ZM127.504 44.584L124.208 35.112H124.144L120.912 44.584H127.504ZM158.119 45.768V53H154.407V46.664L152.103 44.136H144.807V53H141.095V30.6H154.727L157.991 33.896V40.776L155.655 43.112L158.119 45.768ZM144.807 41.064H153.063L154.343 39.784V35.016L153.063 33.736H144.807V41.064ZM167.079 30.6H170.791V53H167.079V30.6ZM186.107 30.6H189.627L197.723 53H193.947L192.027 47.688H183.675L181.755 53H177.979L186.107 30.6ZM191.163 44.584L187.867 35.112H187.803L184.571 44.584H191.163ZM204.754 30.6H208.146L218.706 46.888H218.77V30.6H222.322V53H218.93L208.37 36.744H208.306V53H204.754V30.6ZM237.504 30.6H241.024L249.12 53H245.344L243.424 47.688H235.072L233.152 53H229.376L237.504 30.6ZM242.56 44.584L239.264 35.112H239.2L235.968 44.584H242.56ZM269.038 30.6H282.894L286.638 34.344V49.256L282.894 53H269.038V30.6ZM281.102 49.8L282.926 48.008V35.592L281.102 33.8H272.75V49.8H281.102ZM295.267 30.6H310.883V33.768H298.979V40.168H309.955V43.304H298.979V49.832H310.883V53H295.267V30.6ZM122.448 72.6H125.968L134.064 95H130.288L128.368 89.688H120.016L118.096 95H114.32L122.448 72.6ZM127.504 86.584L124.208 77.112H124.144L120.912 86.584H127.504ZM141.095 72.6H154.663L157.767 75.704V81.976L156.391 83.352L158.759 85.72V91.64L155.399 95H141.095V72.6ZM152.807 82.232L154.119 80.92V77.016L152.839 75.736H144.711V82.232H152.807ZM153.575 91.864L155.111 90.328V86.744L153.575 85.24H144.711V91.864H153.575ZM183.787 87.768V95H180.075V88.664L177.771 86.136H170.474V95H166.762V72.6H180.394L183.659 75.896V82.776L181.323 85.112L183.787 87.768ZM170.474 83.064H178.731L180.01 81.784V77.016L178.731 75.736H170.474V83.064ZM192.586 72.6H208.202V75.768H196.298V82.168H207.274V85.304H196.298V91.832H208.202V95H192.586V72.6ZM216.191 91.256V72.6H219.903V90.008L221.727 91.8H228.319L230.143 90.008V72.6H233.855V91.256L230.111 95H219.935L216.191 91.256Z" fill="white"/>
<path d="M29.9285 28.1137L29.8954 34.2326L27.0791 34.2458L27.1122 28.1269L29.9285 28.1137Z" fill="white"/>
<path d="M67.0302 58.6419L58.3432 41.4429V41.3966L39.0057 79.6444H26.4446V70.9457H30.5302L31.9847 68.1344H23.6679L23.6084 82.469H37.5711L30.0476 97.5512H33.1152L35.9051 92.0343L74.6792 91.8623L59.8439 62.4521L58.3035 59.0652L56.697 62.505L43.2236 89.1568H37.3331L58.3167 47.661L83.4389 97.3197H86.8106L67.0302 58.6419ZM55.6392 70.8531L57.0606 68.0418L57.5168 67.2083L58.2638 65.7265V65.5479L58.3101 65.6339L58.7531 66.5137L59.5001 68.0285L60.9149 70.8333L63.5593 76.0856L63.7907 76.542H63.5593H58.1845H52.7369L55.6392 70.8531ZM49.8016 82.4029L51.223 79.5849H58.1713H63.5461H65.2981L66.3426 81.6554L66.7128 82.3831L70.0779 89.0377H66.2831H63.4734H58.0986L46.3705 89.0906L49.8016 82.4029ZM83.9612 91.7896L78.95 82.2772L83.9612 91.7896ZM77.5286 79.4725L68.2731 61.1622L77.5286 79.4725Z" fill="white"/>
<path d="M76.768 28.4643L76.7548 31.4477L69.7206 31.4807L69.6214 48.5672H66.8315L66.9241 28.5106L76.768 28.4643Z" fill="white"/>
<path d="M55.5926 34.1135L42.5687 59.8855L24.3022 59.9715L24.3155 57.1601L40.83 57.0873L50.9186 37.1167L35.7791 37.1895L35.7924 34.2061L55.5926 34.1135Z" fill="white"/>
<path d="M76.8078 45.5508L87.3855 36.2898V32.5259L72.1602 45.8617V48.5474L87.3657 48.4746V51.2926H90.1754V45.5111L76.8078 45.5508ZM76.6888 45.6434L76.8012 45.5442L76.6888 45.6434Z" fill="white"/>
<path d="M41.2732 41.9721L37.0487 50.3334L24.7983 50.3864L24.8116 47.5684L35.31 47.5221L38.1065 41.9853L41.2732 41.9721Z" fill="white"/>
<path d="M24.0249 91.4985L24.058 97.6174L26.8743 97.6306L26.8412 91.5117L24.0249 91.4985Z" fill="white"/>
<path d="M70.937 54.6795L83.9609 80.4448L97.8178 80.4118L97.8046 77.6004L85.6996 77.6467L75.6111 57.6761L90.7505 57.7488L90.7373 54.7655L70.937 54.6795Z" fill="white"/>
<path d="M85.1113 62.5315L89.3358 70.8928L97.1568 70.8994L97.1435 68.0815H91.0745L88.278 62.5447L85.1113 62.5315Z" fill="white"/>
<path d="M87.022 88.9848L91.2465 97.3461L99.0674 97.3594L99.0542 94.5414L92.9852 94.5348L90.1887 88.998L87.022 88.9848Z" fill="white"/>
</svg>
