<svg width="95" height="94" viewBox="0 0 95 94" fill="none" xmlns="http://www.w3.org/2000/svg">
<g clip-path="url(#clip0_82_272)">
<path fill-rule="evenodd" clip-rule="evenodd" d="M67.966 12.4581C70.7891 11.2139 72.5335 9.01457 72.1232 12.022C70.549 23.5519 69.437 24.1223 70.4132 24.1252C78.4515 24.1515 85.3352 20.2064 81.1884 27.0515C77.5277 33.0955 74.0407 37.0283 76.2805 38.1371C80.7117 40.3312 96.086 45.8059 94.6965 46.9258C93.0291 48.2698 74.5075 53.7878 75.8556 56.2802C78.6363 61.4216 84.211 70.1811 82.0767 70.034C70.4027 69.2306 69.5384 68.6561 69.7814 69.8244C72.0463 80.7208 72.2596 80.7535 71.9746 81.4238C71.5002 82.5395 71.1371 81.7244 68.4969 80.5643C56.8795 73.8792 56.517 73.0823 56.0583 74.1069C47.7006 92.7546 47.4908 94.5417 46.5053 93.1516C45.2411 91.3685 38.636 73.2539 37.1988 74.0299C23.6499 81.3426 21.6409 83.6908 22.0652 80.9135C22.6247 77.2481 24.5276 69.5879 24.4088 69.1962C24.1762 68.4278 23.8772 68.8599 16.1956 69.4846C11.5488 69.7876 11.5628 69.049 11.7254 68.7238C13.9494 64.2714 20.315 55.3782 18.5048 54.6425C8.44875 50.5544 -2.09916 46.91 0.362093 45.7878C18.4471 37.5433 20.002 37.959 19.1552 36.5099C18.6056 35.5693 18.4954 35.6498 12.1211 24.8486C9.8924 21.0717 24.956 25.6245 24.4694 23.1006C22.3764 12.2514 20.8057 10.7474 23.1668 10.863C24.8954 10.9477 37.3258 20.6408 38.745 17.7817C42.1032 11.0143 46.3648 -4.09172 48.5463 1.04559C55.9225 18.4192 55.5518 19.6932 56.9308 18.926C57.8249 18.4286 57.7479 18.4467 67.966 12.4581L89.4278 45.7388C88.5996 44.6581 88.4178 44.9407 73.9154 38.7717C71.2193 37.625 48.1949 46.0949 53.4741 45.8865C56.348 45.7732 64.6165 45.4474 89.4284 45.7382L67.9671 12.4575L34.2019 42.4932C22.6212 38.3764 22.5 37.9496 19.5766 39.2505C12.9604 42.1948 2.80761 45.9385 5.08412 45.9046C12.2814 45.7972 20.6968 45.2589 41.2331 45.8789L41.4295 45.2192C37.8486 43.627 37.8993 43.8068 34.2019 42.4932L67.9671 12.4575L52.9157 47.0875C54.4754 49.4427 71.4495 54.0633 71.5387 54.0814C72.9718 54.3774 73.0645 54.3056 88.7785 47.9638C92.4387 46.4867 66.7041 47.6912 52.9157 47.0875L67.9671 12.4575L46.0408 50.7132C42.0088 65.2365 38.8196 71.8667 39.445 73.3386C45.5961 87.8152 46.5391 89.2228 46.493 87.9267C45.6946 65.5103 47.2699 52.5833 46.0408 50.7132L67.9671 12.4575L35.9043 49.7644C36.3584 49.6202 44.5878 47.0093 41.2267 47.0892C11.4281 47.798 0.964731 45.9443 8.55016 48.9155C21.2976 53.9086 21.2633 54.1889 22.5863 54.0593C24.7876 53.8432 34.8535 50.1504 35.9043 49.7644L67.9671 12.4575L48.2508 4.33617C46.5542 6.74748 48.1389 7.11122 47.6756 41.2069C47.6657 41.942 47.9192 42.0699 48.544 41.6209C51.5117 29.6268 55.1748 21.4208 54.7056 20.1778C51.6802 12.1563 51.6102 12.2765 48.2508 4.33617L67.9671 12.4575L46.007 4.58606C45.6369 5.52022 45.6491 5.46651 39.92 18.9675C39.1827 20.705 39.1314 20.8253 45.9015 41.7949C46.7676 40.3008 46.6626 5.73508 46.007 4.58606L67.9671 12.4575L69.0756 13.8243C68.0132 14.351 56.9168 19.8485 56.2716 21.2988C52.4005 29.9988 50.2691 39.0519 49.8961 40.6377C49.2918 43.206 50.6841 39.5587 69.0756 13.8243L67.9671 12.4575L43.7287 51.3356C39.7883 59.7693 23.348 79.9402 26.0844 78.6195C37.2635 73.2236 37.8562 71.493 38.2374 70.3808C41.4575 60.9826 41.2366 60.9814 44.6781 51.7128C45.3029 50.0301 43.7917 51.283 43.7287 51.3356L67.9671 12.4575L51.7338 41.8317C60.8165 34.7052 66.2309 32.9799 66.5159 31.3439C68.8 18.2301 71.8849 11.3733 68.8507 16.3004C53.836 40.6832 50.5786 39.6603 51.7338 41.8317L67.9671 12.4575L69.8275 77.4413C69.7337 76.2047 69.5786 76.3524 67.0177 62.1964C66.5025 59.3501 64.5739 61.1384 52.661 51.4278C48.6332 48.1448 53.3167 53.2407 65.9535 72.0033C67.9024 74.8969 67.0364 75.493 69.8275 77.4413L67.9677 12.4581L32.0536 17.6007C26.0168 13.9189 25.4316 13.7239 25.5307 14.3597C25.9288 16.9082 27.3205 16.158 43.7007 40.9734C45.6579 43.9382 38.5626 21.2801 37.0315 20.3938C35.3845 19.441 33.7001 18.5535 32.0536 17.6007L67.9677 12.4587L50.4632 51.8214C49.8594 53.309 50.3059 53.351 56.267 71.0388C56.6114 72.0611 56.6324 72.1236 67.495 78.4864C71.3982 80.7728 61.5852 69.3416 50.4632 51.8214L67.9677 12.4587L41.806 51.6287C31.4422 59.0535 27.8369 60.2177 27.4703 62.2641C24.7882 77.251 23.4634 78.7194 24.3796 77.8407C24.9758 77.2691 32.8171 64.4168 41.5361 53.2109C42.0572 52.5418 41.6574 52.4986 41.8054 51.6287L67.9665 12.4587L24.3196 14.7824C24.4262 18.783 26.1531 19.793 27.5449 30.7502C27.7233 32.1537 28.1277 31.9891 41.8241 41.1573C43.9269 42.565 41.0367 40.1233 24.3196 14.7824L67.9665 12.4587L79.7314 66.9764C79.6113 66.1444 79.5437 65.675 74.824 57.6902C74.1934 56.6229 73.8577 56.0549 60.4411 51.9667C56.7729 50.8492 69.6043 58.552 79.7314 66.9764L67.9665 12.4587L69.2441 33.656L67.6431 35.0491C67.02 35.5045 62.5853 38.7443 59.7493 40.5892L60.032 40.9892C71.3376 36.2436 72.5784 38.2708 74.7972 34.6363C79.9004 26.2767 80.513 25.5802 79.7693 25.8867C78.8018 26.2855 79.1078 26.5517 69.2441 33.656L67.9671 12.4593L34.7136 52.1933C34.4852 52.2551 34.4793 51.5919 34.2509 51.6538C28.844 53.121 29.2613 54.1597 21.4358 55.8534C20.4228 56.073 14.8953 66.0031 14.4711 66.8771C17.0675 65.4911 26.8181 56.8571 34.7136 52.1933L67.9671 12.4593L34.1436 40.142C24.4373 33.1889 24.5614 33.1994 14.9968 26.1226C13.1725 24.7727 20.6554 36.3744 21.4107 36.5735C32.7524 39.5657 34.3797 42.8359 34.1442 40.1414L67.9677 12.4581L26.219 60.3462C23.3987 61.2319 17.1276 66.5046 16.3973 67.1194C14.9839 68.3081 21.7324 67.4563 24.2968 67.2782C26.198 67.1463 25.2853 66.1438 26.219 60.3462L67.9677 12.4581L78.4439 67.9409C77.9934 67.1136 77.7894 66.7393 69.1567 60.721C68.4876 60.2545 68.5529 60.9919 68.8862 63.9649C69.307 67.7208 70.4231 67.5053 78.4439 67.9409L67.9683 12.4581L68.2183 32.3254C68.7359 32.072 79.9657 24.7096 77.9433 24.9087C69.3397 25.7553 69.103 25.7909 68.9276 26.5032C68.2055 29.4318 68.4334 29.3764 68.2183 32.3254L67.9683 12.4581L18.2926 26.8763C24.6599 31.4648 26.5273 34.4407 26.1153 31.292C25.6432 27.6844 27.3438 26.0875 23.7333 25.7069C20.73 25.3898 13.2815 23.9693 18.2926 26.8763L67.9683 12.4581L50.5635 47.6696C49.6875 48.3177 50.3531 48.689 61.2163 56.1553C61.5153 56.3608 81.7439 70.1292 65.468 57.7305C57.6127 51.7466 51.809 48.3901 50.5641 47.6696L67.9683 12.4581L38.7363 42.081C39.1407 42.3104 51.7041 49.4352 44.1763 44.1157C43.4163 43.5785 -7.28744 8.42254 33.974 38.53C34.3581 38.8102 34.3266 38.7933 38.7363 42.081L67.9683 12.4581L66.2536 34.2323C63.5738 34.3537 58.5219 39.0636 49.4013 44.7188C49.8903 45.2379 49.8612 45.1596 50.5693 45.0808C51.8981 44.3323 59.8711 39.8407 66.2536 34.2323L67.9683 12.4581L44.5662 47.8979C39.5312 50.0313 39.6356 50.1083 34.4129 53.7288C34.0393 53.988 9.27403 71.9724 30.5103 57.8665C43.9251 48.9564 44.4893 49.2758 44.5662 47.8979L67.9683 12.4581H67.966Z" fill="white"/>
<path fill-rule="evenodd" clip-rule="evenodd" d="M46.0054 4.58672C46.773 3.85866 46.7246 3.95325 47.6455 3.72729C48.2131 3.82071 48.2895 3.76408 48.2493 4.33684C46.5527 6.74814 48.1374 7.11188 47.674 41.2076C47.6641 41.9427 47.9176 42.0705 48.5424 41.6216L48.3285 42.558C46.8767 43.2266 46.5183 43.3679 45.8999 41.7955C46.766 40.3015 46.6611 5.73574 46.0054 4.58672Z" fill="white"/>
<path fill-rule="evenodd" clip-rule="evenodd" d="M41.4288 45.2205C41.7983 45.4803 41.8601 45.106 42.2716 45.3956C43.0019 45.9088 42.0373 45.5048 41.2324 45.8802L41.4288 45.2205Z" fill="white"/>
</g>
<defs>
<clipPath id="clip0_82_272">
<rect width="95" height="94" fill="white"/>
</clipPath>
</defs>
</svg>
