<svg width="124" height="87" viewBox="0 0 124 87" fill="none" xmlns="http://www.w3.org/2000/svg">
<g clip-path="url(#clip0_83_398)">
<path fill-rule="evenodd" clip-rule="evenodd" d="M106.398 22.7577C106.504 23.0148 106.44 23.1204 106.742 23.1C108.104 23.1822 110.964 22.8792 110.957 23.8524C110.95 24.8208 105.601 28.3833 105.906 28.9845C106.153 29.4717 110.678 30.7833 106.867 31.7565C101.482 33.1314 101.355 33.7395 98.8385 32.4771C96.7448 31.4268 95.6276 29.9196 93.8776 33.222C91.2691 38.1453 96.5779 40.728 96.8181 49.6539C96.8491 50.8056 97.3421 50.7738 110.442 54.0606C117.683 55.8774 117.852 55.8984 117.975 56.5242C118.586 59.6352 115.403 58.6104 115.494 61.0524C115.582 63.4449 116.908 62.4039 117.776 63.2559C118.7 64.1625 116.569 65.5524 119.266 69.234C119.291 69.2685 123.394 76.9245 123.753 77.5935C124.916 79.7649 122.489 78.8202 93.1381 78.8661C39.0782 78.9507 38.5468 78.525 38.4073 79.3599C38.1539 80.8728 39.1805 81.3288 37.7744 82.1919C37.2319 82.5249 32.3751 87.8304 31.6853 86.5833C31.5106 86.2671 35.5013 82.8891 35.8533 82.5909C37.9288 80.8344 36.2379 80.5002 34.2044 78.6531C28.0246 73.0398 24.8525 69.8613 24.0638 69.0711C19.9184 64.9173 19.6195 64.9803 19.2698 65.3196C18.7598 65.814 18.9178 65.961 13.1718 71.7771C12.1449 72.8169 13.4683 72.8274 25.8293 84.9918C26.2866 85.4418 28.7883 86.9226 26.6693 86.7192C25.5539 86.6121 18.4364 78.9063 17.7094 78.8724C13.9727 78.6993 0.200646 79.2885 0.0298479 78.4854C-0.089681 77.9229 -0.0115847 77.8878 3.28038 72.0825C9.99903 60.2343 9.80558 59.7534 10.8658 59.7474C25.3095 59.6658 25.8302 60.246 26.8234 58.5774C29.2268 54.5394 28.9087 54.3693 28.9111 49.6521C28.9171 37.9929 29.2646 37.9155 28.785 37.0281C28.4026 36.3201 20.331 33.9723 19.2871 31.914C17.1878 27.7761 22.6411 29.3562 24.8379 30.5358C28.6047 32.5587 28.856 31.6743 28.9058 31.344C29.0915 30.1173 28.4232 14.5959 29.3257 14.46C31.4522 14.1396 35.9833 15.8871 36.0763 14.5422C36.107 14.0994 35.6694 10.0017 36.7914 9.95703C38.1256 9.90393 47.6608 10.9527 48.7365 11.1636C51.8198 11.7681 51.8803 11.184 54.9571 11.9244C55.4653 12.0465 57.4347 11.8992 59.7651 12.3669C65.3564 13.4892 68.9473 12.3195 71.1456 14.784C72.0885 15.8409 76.8425 18.6549 76.8541 20.5503C76.9528 36.6936 76.088 37.3026 77.7036 38.1135C78.8077 38.6679 90.4077 44.4906 91.2494 45.5355C91.4965 45.8427 91.1296 49.0215 92.2215 49.1892C94.3333 49.5132 95.706 50.4906 95.7131 49.0509C95.7525 41.0679 89.3242 38.193 93.5956 31.8801C94.7644 30.1524 91.7159 32.2257 89.5471 31.3833C89.5465 31.383 83.4389 28.1283 83.2824 27.459C82.8878 25.7709 86.9878 27.1635 85.4897 25.2687C82.3638 21.3162 82.8806 20.8086 83.2771 20.7543C85.5687 20.4414 87.8472 22.9977 87.3083 19.635C86.9825 17.601 85.5469 11.8839 88.4195 14.1876C90.193 15.6096 91.6781 15.6984 93.2439 18.0798C93.6558 18.7065 94.1166 17.4282 96.6831 12.4329C97.3302 11.1738 97.938 10.5246 98.4343 11.8812C99.3577 14.4045 99.2996 14.3871 100.034 16.9353C100.353 18.0444 100.78 17.0763 104.503 15.228C106.984 13.9956 108.099 13.4661 108.192 14.2722C108.398 16.0353 107.911 18.9636 107.845 19.3665C107.524 21.2979 107.946 21.5853 106.398 22.7577L43.4421 46.8699C38.8493 40.3923 37.8409 41.0685 37.5384 41.6244C31.9286 51.9312 31.7589 51.8265 31.2829 52.7283C28.3749 58.2399 23.5365 65.8809 23.5431 66.7494C23.5478 67.4238 26.8875 70.4298 27.0404 70.5216C28.8181 71.586 34.6893 78.7485 36.1443 78.021C48.2676 71.9583 48.4611 72.09 49.1881 70.8762C49.5079 70.3422 53.3591 66.0876 53.3659 66.0765C54.5332 64.1754 58.9406 59.793 62.9584 57.3243C65.1996 55.9473 62.3273 53.9043 62.3404 52.6491C62.3446 52.2429 62.3467 52.059 66.5553 49.8576C68.0924 49.0536 65.2479 49.1673 65.1209 49.1724C64.1331 49.212 64.2532 49.5033 63.2961 49.8054C63.1506 49.8513 62.7294 49.9842 61.5124 50.4816C50.9435 54.8007 51.1143 55.1784 50.1777 55.5033C46.9904 56.6085 44.1062 58.4859 43.6567 58.0524C41.9606 56.415 50.6767 55.5459 48.9508 53.6136C46.4047 50.763 46.2538 49.9767 43.4421 46.8699L106.398 22.7577L37.8487 23.5515C37.7676 24.7059 37.6761 35.0301 37.9336 35.5824C39.1545 38.1999 57.1155 35.2176 58.9033 36.6927C59.4288 37.1265 65.3418 41.5101 66.6623 42.69C68.0772 43.9548 68.3082 43.4859 68.3303 43.3434C68.6352 41.376 68.3196 41.3706 68.2895 18.4524C68.2862 15.9132 66.8721 17.5551 65.4267 17.6439C63.8848 17.739 63.7998 17.7441 46.3531 20.6856C38.0707 22.0818 37.6072 21.9456 37.7229 22.6485C37.7992 23.1123 37.7843 23.0901 37.8487 23.5515L106.398 22.7577L40.4175 76.9968C40.3966 77.4294 40.4428 77.3997 40.701 77.7183C66.2217 77.8683 92.2844 77.4954 95.5394 77.9607C96.8464 78.1476 96.8858 78.1863 97.9732 77.478L97.7153 77.0211C93.4403 78.2688 85.4849 74.2887 81.2001 73.7451C80.8787 73.7046 80.9488 73.506 77.3206 72.5829C76.294 72.3219 66.1922 69.7518 64.5486 69.0843C61.9473 68.028 60.6721 69.3318 58.9251 64.9182C58.8255 64.6668 57.1941 63.4818 56.8213 63.8241C54.7201 65.7525 49.3973 72.7581 47.7904 73.5747C47.0083 73.9722 41.3657 76.6422 40.4175 76.9968L106.398 22.7577L70.3873 57.3687C69.7253 57.9525 69.6681 58.3683 68.9622 57.7977C67.9744 56.9988 68.3211 59.1153 68.9616 59.3133C69.6979 59.5407 69.6931 59.4993 78.2053 62.0301C79.6539 62.4609 94.1646 66.7755 96.4163 67.053C97.0384 67.1295 107.931 60.828 113.151 58.134C115.45 56.9478 115.468 56.8023 115.365 56.613C115.302 56.4984 96.6953 51.2385 96.3853 51.7236C95.0484 53.8152 96.2804 54.99 90.8187 58.1931C87.0939 60.3774 85.6945 62.0379 80.0057 61.146C77.3415 60.7284 78.2384 58.8969 73.4545 57.1767C71.7391 56.5596 71.3415 55.8063 70.3873 57.3687L106.398 22.7577L75.6997 39.7524C75.7626 38.8311 75.7405 38.8383 75.742 31.9524C75.7444 21.7395 75.8019 21.7491 75.7742 20.8623C75.7593 20.3781 75.4293 20.4447 69.8487 21.9117C69.2365 22.0728 69.4028 23.5368 69.4037 29.5524C69.4055 44.3706 69.1637 44.7663 70.5599 45.6189C73.4837 47.4039 69.9554 49.1643 71.3352 49.7178C74.2456 50.8854 75.6815 51.4656 75.7488 50.2416C75.7676 49.9059 75.9781 46.0887 75.9727 46.0416C75.6144 42.8934 76.1095 42.8841 75.6997 39.7524L106.398 22.7577L25.1223 60.8667C11.9401 60.8808 11.8775 60.5196 10.8351 60.9918C10.4217 61.179 3.76207 73.3428 3.54388 73.7187C2.38346 75.7164 1.13333 77.6469 1.94022 77.7642C2.30835 77.8179 13.17 77.7513 14.1465 77.7453C15.7075 77.7357 17.1594 77.8059 15.9203 76.9686C15.8536 76.9233 11.5484 73.0335 11.4477 72.7605C11.1761 72.0252 11.3589 71.9073 17.8113 65.3397C19.1554 63.9717 19.1148 63.4617 20.9835 63.8943C21.1963 63.9435 23.3752 64.4481 23.7064 64.0767C24.7807 62.8716 25.0752 61.1436 25.1223 60.8667L106.398 22.7577L53.1525 17.9712C52.5573 17.9454 48.8417 17.7831 45.731 17.3424C39.7429 16.4937 37.1443 16.5687 36.4921 16.3842C36.0158 16.2492 32.4067 15.9513 31.7214 15.8397C30.4385 15.6309 29.7684 15.0186 29.7806 16.353C29.8361 22.4034 29.7609 28.9818 29.789 29.2419C30.076 31.9281 29.2298 32.4171 30.6 33.0135C31.0743 33.2202 36.1648 35.436 36.685 35.2008C36.6853 35.2008 36.6835 29.7285 36.6835 29.2527C36.6811 22.1844 36.2459 21.2106 37.9947 20.9145C40.1912 20.5425 40.1719 20.4501 40.365 20.4408C41.9714 20.3643 52.6646 18.6486 53.1692 18.432C53.354 18.2277 53.3424 18.216 53.1525 17.9712L106.398 22.7577L97.7153 77.0211L97.9732 77.478C99.4942 78.1926 119.85 77.7804 121.752 77.7417C122.543 77.7258 122.414 77.3724 122.028 76.6662C116.789 67.0794 116.99 65.9055 115.753 66.6864C112.838 68.5278 100.737 75.1899 97.7153 77.0211L106.398 22.7577L64.5948 63.0501C63.9411 62.7525 62.5616 61.7427 63.0466 63.1476C63.3214 63.9441 62.7276 65.709 63.5956 65.9274C65.3027 66.3573 65.2795 66.402 84.7916 71.8515C85.2202 71.9712 89.7573 73.2384 90.1582 73.3146C91.6041 73.5891 95.1137 75.072 95.1414 74.2374C95.2982 69.5337 94.7816 69.5982 94.61 69.5526C91.0795 68.6121 81.2183 65.5761 79.7103 65.3382C78.9272 65.2146 78.9776 65.0508 70.2335 62.4324C68.2963 61.8522 68.3491 62.6745 68.4808 62.7282C68.9876 62.9352 69.0245 62.7081 69.5295 62.9673C70.8243 63.6321 80.273 65.3541 77.9525 66.1845C76.8383 66.5835 69.4913 63.4128 67.5079 63.7626C66.7729 63.8922 66.5988 63.4668 64.5948 63.0501L106.398 22.7577L36.9449 13.3545C36.9804 14.922 37.0549 15.2154 38.601 15.3636C42.9255 15.7776 42.8969 15.7404 47.2166 16.4265C47.4309 16.4604 47.3889 16.3896 49.9258 16.5561C52.7701 16.7427 52.6908 17.0709 55.5801 17.2404C59.4893 17.4696 59.4473 17.2338 63.3175 16.8192C63.703 16.7781 63.663 16.5729 68.0859 15.9588C70.2753 15.6549 68.8922 18.1395 69.8448 18.2952C70.1858 18.3507 74.1267 18.9948 74.1354 18.7815C74.1377 18.7236 74.1276 18.7389 71.9147 16.7241C68.4603 13.5798 67.9807 14.5629 63.3184 14.043C57.9423 13.4433 57.9852 13.3353 52.5865 12.834C50.2975 12.6216 45.7393 11.6124 38.8767 11.3436C38.7462 11.3385 37.8847 11.0325 37.702 11.0706C36.879 11.2434 37.251 11.5698 36.9449 13.3545L106.398 22.7577L61.5741 49.1988C64.1668 48.2883 64.2031 48.1116 64.0943 47.9121C64.0818 47.889 21.5921 30.2649 20.9832 30.3747C17.0602 31.0815 24.9887 33.7983 29.4056 36.0237C37.7628 40.2345 38.0123 39.6051 46.4005 43.8207C47.0589 44.1516 52.0368 46.6533 54.7434 47.7282C58.3572 49.1637 58.3304 50.4756 61.5741 49.1988L106.398 22.7577L88.3909 49.2138C85.8852 48.4797 85.8888 48.5508 85.6733 48.4851C83.0461 47.6838 82.999 48.3294 77.2991 51.0744C74.1422 52.5948 79.7395 51.9492 80.9211 51.9447C81.3762 51.9429 82.624 51.9384 85.7317 55.0026C87.265 56.514 87.9661 56.4219 88.3295 56.6298C91.3863 58.3782 94.5173 54.4539 95.2979 51.7782C95.4636 51.2094 95.3128 50.8668 88.3909 49.2138L106.398 22.7577L76.8669 49.8963C78.2086 49.746 78.1284 49.5108 81.2543 47.931C84.8909 46.0935 85.0992 47.2179 89.8449 48.5421C90.6208 48.7587 90.447 46.1094 90.0598 45.8955C89.0502 45.3381 77.8458 39.1518 77.3626 39.0672C76.5137 38.9187 76.8484 39.5721 76.8669 49.8963L106.398 22.7577L106.994 18.1578C107.053 15.9423 107.062 15.9564 107.058 15.765C107.047 15.2967 106.535 14.8854 101.706 18.0591C98.6936 20.0385 98.7106 24.9252 97.2968 28.0482C97.2643 28.1202 96.2166 30.435 97.3454 29.0391C97.7421 28.5486 97.76 28.5834 103.35 23.9433C106.08 21.6765 106.285 21.6666 106.994 18.1578L106.398 22.7577L29.7529 53.1657C29.7597 53.1648 29.9711 53.5383 30.1306 53.1174C31.2829 50.0733 36.6927 41.7132 36.6432 40.9431C36.6045 40.3407 29.9037 37.0722 29.7684 37.9698C29.5851 39.1884 29.7383 51.9501 29.7529 53.1657L106.398 22.7577L58.114 41.5467C57.8556 43.5288 57.2389 43.9194 58.2747 44.2245C58.3677 44.2518 65.0836 47.202 66.915 47.8317C67.1413 47.9094 70.782 50.1426 70.6556 47.2644C70.6335 46.7598 64.0267 42.1704 62.3801 40.7184C59.2393 37.9482 58.7796 38.4903 58.7203 38.8167C58.466 40.2123 58.303 40.1559 58.114 41.5467L106.398 22.7577L56.6654 43.2837C58.2833 37.8504 57.8618 37.5537 57.401 37.5144C53.667 37.1964 48.4978 38.0424 42.7505 37.6296C39.4395 37.392 43.747 37.9479 49.0832 40.518C49.5461 40.7412 49.6975 40.3536 55.0376 42.9186C55.7819 43.2762 55.7926 43.1622 56.6654 43.2837L106.398 22.7577L78.7898 71.9613C95.1617 76.2393 95.3122 77.1375 97.6828 75.8652C106.829 70.9578 106.586 70.5846 115.725 65.7327C117.396 64.845 117.238 64.6092 117.154 64.4829C116.866 64.0533 114.492 65.7522 108.595 69.0372C96.6205 75.7065 96.5776 76.0557 94.9638 75.6642C93.7342 75.366 86.5118 73.1397 80.3896 71.7177C76.5694 70.8303 76.7244 70.4013 72.8551 69.555C72.7332 69.5283 61.7765 66.7398 61.2829 66.1236C59.8092 64.2843 60.729 66.6324 60.7621 66.684C60.9979 67.0518 61.0498 67.0839 72.8652 70.3599C73.769 70.6104 73.7368 70.6662 74.0629 70.6305C74.4531 70.5879 74.3813 70.7793 78.7898 71.9613L106.398 22.7577L94.9441 28.8114C95.1259 28.4016 95.2472 28.4388 95.1223 28.0704C93.2799 22.6329 94.0046 19.1364 91.2679 17.3853C90.7084 17.0274 88.0168 15.0183 87.8087 14.9946C87.2728 14.9334 87.7783 15.2289 87.8406 15.7497C88.483 21.1098 88.3164 21.1653 88.7396 21.6945C91.7141 25.413 92.0721 25.0467 94.9441 28.8114L106.398 22.7577L110.06 62.742L110.41 63.4707C110.663 64.6812 110.192 64.5387 109.115 65.1219C107.821 65.8227 107.882 65.8692 106.59 66.5421C98.4683 70.7736 98.1404 71.9358 96.1871 71.8755C96.1933 72.3525 96.2205 72.3138 96.2264 72.753L96.219 74.2431C96.2285 75.0414 96.6101 74.5659 97.2918 74.22C97.7493 73.9878 102.241 71.7087 102.984 71.2638C102.792 70.8246 102.833 70.851 102.666 70.6233C102.537 70.6983 100.194 72.0615 100.806 70.6434C100.832 70.584 107.9 66.6192 112.443 64.2138C115.595 62.5449 114.42 60.7338 114.336 60.7107C113.971 60.6102 114.01 60.7887 110.06 62.742L106.398 22.7577L111.611 60.1464C110.788 60.7227 110.69 60.5286 100.559 66.0933C97.4652 67.7925 97.4277 68.5725 94.0782 67.5369C93.8844 67.4769 93.2033 67.3698 93.1351 67.3746C92.2256 67.44 92.3654 66.8187 82.1754 64.2291C81.1345 63.9645 74.6778 62.3235 69.2961 60.435C68.6072 60.1932 68.5714 60.9927 69.3262 61.2465C69.3321 61.2486 77.5003 63.6 78.211 63.8046C94.9366 68.6202 94.9083 68.802 96.4181 68.8686C97.0706 68.8974 108.964 62.1846 112.147 60.6057C111.783 60.4746 111.821 60.4566 111.611 60.1464L106.398 22.7577L87.9414 57.7671C82.4088 54.3081 81.8105 52.2726 78.5049 53.1786C77.4583 53.4654 76.7942 54.6921 77.7155 55.2117C82.7688 58.0605 83.8932 57.8517 88.0421 58.0101L87.9414 57.7671L106.398 22.7577L67.3526 58.347C67.02 55.6629 66.2101 56.1921 66.0578 56.31C64.0985 57.8241 61.5818 58.989 63.0955 60.7044C64.2219 61.9806 64.7927 61.6866 65.3778 62.0274C67.8504 63.4683 67.9461 61.4043 67.3526 58.347L106.398 22.7577L98.2835 19.4319C99.5726 18.0561 99.3437 17.8584 98.7687 16.0644C98.3469 14.7483 98.51 14.7318 98.0566 13.4043C97.7001 12.3609 96.6157 14.5314 95.075 17.6241C94.4317 18.9153 94.9268 18.9318 95.6559 20.1786C96.5794 21.7575 97.0134 20.7108 98.2835 19.4319L106.398 22.7577L99.7816 28.1598C100.073 28.3566 99.9896 28.4178 100.291 28.6257C102.303 28.2096 102.758 28.2039 102.975 28.2012C106.871 28.1541 106.845 25.7286 108.668 24.7833C110.129 24.0258 106.834 24.2178 105.363 24.273C104.82 24.2934 104.63 24.3006 99.7816 28.1598L106.398 22.7577L69.7432 52.92C69.1649 54.6723 70.0881 54.4179 71.7352 55.2231C73.752 56.2086 73.5195 54.8964 74.516 52.8909C75.0156 51.8853 73.1815 51.8265 71.1182 50.7753C70.9975 50.7138 69.1655 49.7805 69.4433 50.5503C69.8621 51.7119 70.0592 51.6882 69.7432 52.92L106.398 22.7577L81.1962 60.2949C81.6132 60.3015 81.7724 60.7656 86.8534 59.4987C89.1051 58.9374 84.3642 59.1216 82.9936 58.6785C79.2852 57.4794 79.4694 57.1191 77.3707 56.1876C76.0848 55.617 76.297 57.8889 78.3093 59.1249C79.6823 59.9685 79.7091 59.8047 81.1962 60.2949L106.398 22.7577L85.233 27.6579C86.5431 28.4514 86.5357 28.4556 86.6495 28.5237C90.3895 30.7596 90.518 30.834 91.9246 30.3573C93.0787 29.9661 93.0892 30.2445 94.3178 30.1251C95.9763 29.9643 93.5294 29.5053 92.4897 28.7223C91.7609 28.1733 89.2809 27.1944 88.9936 27.081C88.4654 26.8725 85.6754 26.8671 85.233 27.6579L106.398 22.7577L105.895 30.2442C104.043 29.4564 104.044 28.944 100.304 29.6889C97.433 30.2607 97.2917 30.4689 97.4488 30.6525C97.6798 30.9228 100.029 31.9209 100.259 32.0187C101.12 32.3844 104.779 31.2837 105.911 30.7176L105.895 30.2442L106.398 22.7577L84.9907 22.2204C84.9338 22.3587 84.8768 22.4973 84.8196 22.6356C87.1488 25.7709 87.7089 25.809 88.0719 25.8339C89.799 25.9512 91.1818 26.9373 92.2662 27.636L92.9357 27.7809C92.6465 27.4383 92.6334 27.4551 89.1882 23.6157C88.2114 22.527 86.4254 22.1226 84.9907 22.2204L106.398 22.7577L65.081 51.9072C63.1128 52.7772 63.6055 53.4084 64.6544 55.2654C64.9918 55.8624 69.161 52.977 68.7631 51.7275C67.9991 49.3278 67.0244 51.0321 65.081 51.9072L106.398 22.7577L42.1764 43.1007C42.1207 43.2558 42.0653 43.4109 42.0095 43.566C45.3435 46.7934 45.3155 49.7613 48.2137 47.0394C49.2417 46.074 48.236 45.9687 46.2726 44.9928C44.3762 44.0505 42.5079 43.2438 42.1764 43.1007L106.398 22.7577L47.7329 50.3337C48.3627 51.3294 48.6143 50.8749 49.6609 50.3355C53.0071 48.6096 53.3278 48.2754 52.8252 47.9727C50.6877 46.6857 49.7604 47.3043 49.5386 47.4525C49.13 47.7249 46.6938 49.0092 47.7329 50.3337L106.398 22.7577L61.9869 63.1518C61.9389 61.77 61.871 61.8156 61.764 60.465C61.6555 59.0955 61.0384 60.2835 58.6437 61.7952C57.4487 62.5497 58.1197 63.1038 60.4083 64.2198C62.057 65.0235 61.9288 64.0404 61.9869 63.1518L106.398 22.7577L110.06 62.742C109.237 63.1443 103.673 65.8626 99.9649 68.1531C97.1666 69.8814 96.3948 69.2277 96.137 70.9479C96.4717 71.1213 96.5528 71.3202 96.7257 70.9665C97.129 70.1412 97.4748 70.5846 100.028 68.8842C100.15 68.4027 100.21 68.2305 100.59 68.5158C100.802 68.4207 102.257 67.8927 103.908 66.8151C103.988 66.7815 104.068 66.7476 104.148 66.714C107.262 65.025 107.141 64.8297 110.41 63.4707L110.06 62.742L106.398 22.7577L49.9255 51.4605C50.0239 51.6405 50.1226 51.8205 50.2212 52.0005C52.9844 51.9129 52.9716 51.6579 53.2032 51.7206C54.5091 52.0743 54.5398 52.2819 56.1264 51.6453C56.854 51.3534 56.4385 51.0963 55.8239 50.6208C53.1692 48.5676 52.8816 49.9245 49.9255 51.4605L106.398 22.7577L95.9069 27.4512C96.2583 27.3561 96.2458 27.4569 96.5877 27.3804C97.7863 22.3308 99.8442 19.0248 97.8131 21.3309C95.618 23.8233 96.7346 24.2763 95.9069 27.4512L106.398 22.7577L109.221 67.0176C108.84 67.2099 107.808 67.785 107.686 67.8528C105.158 69.261 105.191 69.2445 102.666 70.6233C102.833 70.851 102.792 70.8246 102.984 71.2638C109.06 68.0157 108.979 67.8921 109.519 67.6362C109.42 67.4301 109.321 67.224 109.221 67.0176L106.398 22.7577L111.611 60.1464C111.821 60.4566 111.783 60.4746 112.147 60.6057C112.561 60.3762 119.581 56.4804 116.978 57.1911C116.56 57.3051 111.932 59.9124 111.611 60.1464L106.398 22.7577L109.221 67.0176C109.321 67.224 109.42 67.4301 109.519 67.6362C114.289 64.7004 114.479 64.9659 114.76 64.5678C115.885 62.9739 109.485 66.8691 109.221 67.0176L106.398 22.7577L75.6299 55.6926C75.7298 55.4931 76.7757 53.4078 76.3912 53.0085C75.7205 52.3122 75.2728 53.6817 74.5822 55.3203C74.507 55.4979 74.4298 57.7686 75.6299 55.6926L106.398 22.7577L69.4409 20.2809C70.5274 21.3705 75.1193 19.6272 73.7362 19.6986C70.401 19.8708 69.6854 18.9471 69.4409 20.2809L106.398 22.7577L95.4064 24.6468C95.6327 22.7709 95.6774 22.8009 95.6941 22.6398C95.7921 21.6876 93.1845 18.0072 94.1292 20.2512C95.4636 23.421 94.2704 24.0144 95.4064 24.6468L106.398 22.7577L68.3074 56.0427C68.403 56.127 69.905 57.4518 69.894 55.9524C69.8892 55.2915 66.2566 53.8242 68.3074 56.0427L106.398 22.7577L54.7916 48.8055C54.9544 48.9882 55.1171 49.1712 55.2799 49.3542C56.5014 50.1849 58.872 51.4908 58.4947 50.5536C58.4514 50.4456 55.8778 48.921 54.7916 48.8055L106.398 22.7577L52.557 53.0082C52.3748 52.9848 50.7643 52.7772 50.2618 53.0667C50.1554 53.1282 50.1911 54.0657 50.8311 53.9541C52.4744 53.6676 52.5373 53.1654 52.557 53.0082L106.398 22.7577L22.1981 65.8449C23.8876 65.7762 21.4321 64.5135 21.4154 65.2311C21.4109 65.4207 22.1281 65.8071 22.1981 65.8449L106.398 22.7577L53.1525 17.9712C53.3424 18.216 53.354 18.2277 53.1692 18.432C53.83 18.4749 53.7949 18.6198 54.4268 18.5136C55.868 18.2715 53.2625 17.9835 53.1525 17.9712L106.398 22.7577L40.4175 76.9968C40.3218 77.0496 40.3036 76.9467 39.165 77.5446L39.2261 77.8056C39.9674 77.9232 39.9501 77.8749 40.701 77.7183C40.4428 77.3997 40.3966 77.4294 40.4175 76.9968L106.398 22.7577L49.9255 51.4605C49.1887 51.6306 49.1046 51.7218 49.0543 51.7764C48.4188 52.4673 49.7661 52.197 50.2212 52.0005C50.1226 51.8205 50.0239 51.6405 49.9255 51.4605L106.398 22.7577L36.6671 79.4196C37.8841 80.517 37.2835 78.9576 37.0713 78.8547C36.5213 78.5877 36.6575 79.365 36.6671 79.4196L106.398 22.7577L99.7816 28.1598C98.4036 29.298 100.239 28.6443 100.291 28.6257C99.9896 28.4178 100.073 28.3566 99.7816 28.1598L106.398 22.7577L95.9069 27.4512C95.9698 29.1975 96.5439 27.5178 96.5877 27.3804C96.2458 27.4569 96.2583 27.3561 95.9069 27.4512L106.398 22.7577L42.1764 43.1007C41.5222 42.6648 40.918 41.9964 41.2479 42.744C41.2479 42.744 41.9487 43.5003 42.0095 43.566C42.0653 43.4109 42.1207 43.2558 42.1764 43.1007L106.398 22.7577L105.895 30.2442L105.911 30.7176C107.52 31.3029 105.93 30.2577 105.895 30.2442L106.398 22.7577L115.512 64.0266L115.793 64.1475C116.384 63.525 115.861 63.5262 115.812 63.5298C115.326 63.5658 115.516 63.9966 115.512 64.0266L106.398 22.7577L100.59 68.5158C100.21 68.2305 100.15 68.4027 100.028 68.8842C100.215 68.7612 100.403 68.6385 100.59 68.5158L106.398 22.7577L52.557 53.0082C52.9465 52.977 53.194 53.3805 53.1433 52.9611C53.0923 52.5387 52.9412 52.9773 52.557 53.0082L106.398 22.7577Z" fill="white" fill-opacity="0.82"/>
<path fill-rule="evenodd" clip-rule="evenodd" d="M13.6737 47.2353C13.589 46.8075 12.8554 43.0938 16.5328 42.6018C18.3022 42.3651 19.2993 43.9239 19.5953 44.1102C20.77 44.85 20.1646 47.9283 20.009 48.0543C17.4005 50.1711 16.5245 49.8066 16.2198 49.6797C13.9992 48.7557 13.733 47.5125 13.6737 47.2353L19.3672 45.7539C19.2185 44.871 17.4116 42.5409 15.3986 44.3244C12.7025 46.7133 16.5021 48.9849 17.0875 48.6846C18.9168 47.7468 19.3151 47.8089 19.3672 45.7539L13.6737 47.2353Z" fill="white" fill-opacity="0.78"/>
<path fill-rule="evenodd" clip-rule="evenodd" d="M60.0546 0C60.3362 0.0036 63.1844 0.0381 63.5346 0.5316C65.1773 2.8467 64.8646 3.4704 64.7427 3.714C63.4619 6.27 63.1826 6.3813 60.3345 6.2565C59.4659 6.2184 57.9856 3.6366 58.2312 2.8407C59.0199 0.2832 59.7952 0.0711 60.0546 0L61.2427 0.9078C57.4875 1.4013 59.8808 6.6261 62.7644 4.9845C63.2437 4.7118 63.6443 3.6165 63.6929 3.4836C63.8604 3.0255 63.1987 1.9905 63.1251 1.8756C62.5051 0.906 62.4162 0.9219 61.2427 0.9078L60.0546 0Z" fill="white" fill-opacity="0.77"/>
<path fill-rule="evenodd" clip-rule="evenodd" d="M110.41 63.4707C110.663 64.6812 110.192 64.5387 109.115 65.1219C107.822 65.8227 107.882 65.8692 106.59 66.5421C98.4684 70.7736 98.1406 71.9358 96.1873 71.8755C96.0925 71.4087 96.085 71.4504 96.1372 70.9479C96.4719 71.1213 96.553 71.3202 96.7259 70.9665C97.1292 70.1412 97.475 70.5846 100.028 68.8842C100.215 68.7612 100.403 68.6385 100.59 68.5158C100.802 68.4207 102.257 67.8927 103.908 66.8151L104.149 66.714C107.262 65.025 107.141 64.8297 110.41 63.4707Z" fill="white" fill-opacity="0.8"/>
<path fill-rule="evenodd" clip-rule="evenodd" d="M82.9825 69.594C89.105 71.4798 95.4558 72.4566 94.2894 73.6146C94.0516 73.851 86.2309 71.4273 84.7787 71.0631C84.3668 70.9599 77.3947 69.2124 79.9996 68.7453C80.4643 68.6619 81.5955 69.117 82.9825 69.594Z" fill="white" fill-opacity="0.78"/>
<path fill-rule="evenodd" clip-rule="evenodd" d="M64.502 63.7253C65.0483 63.8144 65.0465 63.8063 65.0918 63.8216C70.4083 65.6204 70.5401 65.0192 75.8548 66.7382C77.293 67.2035 76.9452 68.2493 76.1365 67.9862C68.8861 65.6264 63.5049 65.1554 64.502 63.7253Z" fill="white" fill-opacity="0.78"/>
<path fill-rule="evenodd" clip-rule="evenodd" d="M94.3272 71.5753C93.8046 71.4259 88.5507 69.9214 87.8011 69.6757C87.1781 69.4714 84.175 68.8678 83.8989 68.5507C82.281 66.6907 88.3978 68.8165 91.9172 69.8233C93.328 70.2268 94.9141 70.0651 94.6145 71.5117C94.5945 71.6083 94.3471 71.479 94.3272 71.5753Z" fill="white" fill-opacity="0.76"/>
<path fill-rule="evenodd" clip-rule="evenodd" d="M26.0693 5.70692C22.2462 5.29232 24.0954 1.48502 26.0457 2.01332C28.7731 2.75222 28.0923 5.31422 26.0693 5.70692L25.7527 4.49882C27.6402 4.52852 26.0931 2.39132 25.24 3.22112C24.4683 3.97202 25.6511 4.45742 25.7527 4.49882L26.0693 5.70692Z" fill="white" fill-opacity="0.74"/>
<path fill-rule="evenodd" clip-rule="evenodd" d="M111.47 41.5524C110.889 45.3756 107.186 42.1311 108.944 40.3602C109.03 40.2732 109.565 39.7341 110.435 40.0296C111.41 40.3608 111.308 40.5285 111.47 41.5524L110.145 41.1039C109.721 41.2536 109.507 41.0814 109.509 41.5524C109.509 42.0609 111.131 42.1032 110.145 41.1039L111.47 41.5524Z" fill="white" fill-opacity="0.79"/>
<path fill-rule="evenodd" clip-rule="evenodd" d="M75.3526 8.76857C74.3728 6.32147 76.5226 6.33167 76.7461 6.33257C79.2249 6.34427 77.9709 10.9535 75.3526 8.76857L76.7694 7.28417C76.1518 7.43027 75.8957 7.38617 76.0984 7.98407C76.1634 8.17577 77.9745 8.45777 76.7694 7.28417L75.3526 8.76857Z" fill="white" fill-opacity="0.82"/>
<path fill-rule="evenodd" clip-rule="evenodd" d="M92.2661 27.636L92.9356 27.7809C92.5824 27.9684 92.5895 27.8463 92.2661 27.636Z" fill="white" fill-opacity="0.48"/>
<path fill-rule="evenodd" clip-rule="evenodd" d="M106.398 22.7576L106.743 23.0999C106.441 23.1203 106.504 23.0147 106.398 22.7576Z" fill="white" fill-opacity="0.08"/>
<path fill-rule="evenodd" clip-rule="evenodd" d="M54.7919 48.8054C54.9546 48.9881 55.1174 49.1711 55.2801 49.3541C54.6759 49.0367 54.6524 49.0652 54.6276 49.0115C54.5537 48.851 54.8655 48.9644 54.7919 48.8054Z" fill="white" fill-opacity="0.78"/>
<path fill-rule="evenodd" clip-rule="evenodd" d="M84.9909 22.2202C84.934 22.3585 84.877 22.4971 84.8198 22.6354C84.8249 22.5112 84.5983 22.4572 84.6031 22.333C84.6043 22.3003 84.6031 22.333 84.9909 22.2202Z" fill="white" fill-opacity="0.06"/>
</g>
<defs>
<clipPath id="clip0_83_398">
<rect width="124" height="87" fill="white"/>
</clipPath>
</defs>
</svg>
