<svg width="130" height="74" viewBox="0 0 130 74" fill="none" xmlns="http://www.w3.org/2000/svg">
<g clip-path="url(#clip0_82_277)">
<path fill-rule="evenodd" clip-rule="evenodd" d="M50.4669 13.8526C52.2963 9.66264 52.2012 9.72601 53.9509 5.4204C54.0553 5.16352 54.3098 4.28573 62.1021 7.50516C64.7652 8.60537 64.5466 6.08555 66.8708 0.38457C67.2923 -0.649304 70.6872 0.713742 70.9954 0.837501C114.002 18.1084 114.029 18.0629 114.352 18.316C114.979 18.8089 106.312 38.0965 105.034 42.3974C104.314 44.8207 108.467 49.0362 104.21 47.6455C102.308 47.0241 102.801 48.4693 96.2329 64.1479C95.0654 66.934 91.8581 64.4584 85.5546 61.8973L84.6995 61.4852C66.6172 54.7082 66.8371 54.297 48.8481 47.1458C47.8081 46.7324 48.34 46.1242 59.4616 18.5941C62.5399 10.9742 64.2478 9.72686 60.8286 8.34297C57.0475 6.81279 55.7982 4.11604 54.3158 7.95001C48.577 22.7951 36.6771 48.9362 36.8455 49.6979C37.1153 50.9193 63.6412 61.2938 66.006 62.2188C65.1573 62.8367 65.2332 62.9699 64.1843 62.8703C55.7803 58.9568 34.7557 51.4573 35.1887 50.0811C37.0334 44.2232 48.5144 18.7672 49.7308 16.0696C50.1664 15.1178 50.3864 15.2386 50.4669 13.8526L101.231 46.3807C98.9492 45.5161 99.1091 45.1741 99.2583 45.0568C101.22 43.5155 101.594 44.1594 103.453 42.4663C104.983 41.0735 112.202 21.3521 112.885 19.4864C113.446 17.9536 112.218 18.7 110.708 18.1029C68.7931 1.53157 68.2322 0.482811 67.7808 1.65745C66.3103 5.48291 50.4895 43.7613 50.036 45.3838C49.6754 46.6745 59.9271 50.1946 74.4572 56.0011C93.326 63.5414 94.3609 65.4778 95.3966 62.8801C101.558 47.4286 101.89 47.221 101.231 46.3815L50.4669 13.8534L101.77 45.0232C101.81 45.0869 105.018 48.6687 104.136 45.4289C103.703 43.8353 103.153 44.1764 101.77 45.0232L50.4669 13.8534V13.8526Z" fill="white"/>
<path fill-rule="evenodd" clip-rule="evenodd" d="M50.4672 13.8525C50.3871 15.2386 50.1667 15.1178 49.7311 16.0696C49.5257 16.1027 49.4967 15.5941 49.2912 15.6273C48.8548 15.6979 23.7643 24.1521 21.5467 24.8994C21.4448 24.9338 20.444 25.2711 20.6222 25.8703C24.4774 38.8463 26.0613 38.0267 27.0821 38.6829C27.2177 38.7701 29.2819 40.0974 28.0305 40.4568C23.2183 41.8381 27.1056 43.6154 28.4418 48.3757C28.7231 49.3781 36.4604 72.2381 36.4702 72.2466C36.7729 72.5031 36.8781 72.3057 63.7498 63.5878C64.2319 63.8349 64.7139 64.082 65.196 64.329C62.9203 65.1494 41.1264 73.0062 36.4745 73.7866C34.2368 74.1617 27.2935 45.1286 24.1607 41.8713C22.3974 41.9938 21.3046 42.3659 21.9627 40.7145C24.5793 34.1494 20.2718 31.4888 18.9731 25.0074C18.74 23.8434 29.0581 21.4158 50.4672 13.8525L23.4839 40.6792C24.7374 40.9149 24.6232 40.4887 25.8409 40.1731C26.736 39.9414 24.0853 37.2689 23.4839 40.6792L50.4672 13.8525Z" fill="white"/>
<path fill-rule="evenodd" clip-rule="evenodd" d="M1.98022 39.6751C-0.671781 39.5905 0.046842 38.4486 0.218612 38.4337C3.65658 38.1321 17.0091 39.0946 14.239 37.501C11.3219 35.8228 12.8917 35.0335 13.0814 35.1271C13.1709 35.1713 17.645 38.3142 17.6463 39.0329C17.6484 40.3568 7.79228 46.2207 14.6993 40.256C15.4695 39.5909 14.2727 39.6364 1.98022 39.6751Z" fill="white"/>
<path fill-rule="evenodd" clip-rule="evenodd" d="M83.9029 62.0684C84.3483 62.2546 84.2481 62.2844 84.7285 62.8641C84.5243 63.3744 82.6681 68.0156 82.0036 69.1728C80.6934 71.4545 67.4355 62.3929 65.1952 64.3292C64.7132 64.0821 64.2311 63.835 63.749 63.5879C63.8939 63.3489 64.0389 63.1099 64.1838 62.8705C65.2327 62.97 65.1569 62.8364 66.0055 62.2189C66.9496 62.6178 76.2785 66.5624 77.8167 67.1778C82.3305 68.9831 81.6894 66.3191 83.9029 62.0684Z" fill="white"/>
<path fill-rule="evenodd" clip-rule="evenodd" d="M128.222 35.5447C131.264 37.7043 128.742 38.2074 125.912 40.612C125.526 40.9399 122.804 41.423 125.044 39.7537C127.413 37.9875 127.064 37.5423 126.836 37.5206C116.839 36.5688 104.239 38.762 114.044 36.4152C116.521 35.8224 116.534 36.2383 126.011 36.4042C126.502 36.4395 126.993 36.4744 127.484 36.5097C127.73 36.1881 127.976 35.8662 128.222 35.5447Z" fill="white"/>
<path fill-rule="evenodd" clip-rule="evenodd" d="M126.71 35.8127C126.544 35.7004 116.067 27.3452 125.495 33.625C126.95 34.5934 126.828 34.6002 128.223 35.5448C127.976 35.8663 127.73 36.1878 127.484 36.5093C127.226 36.2771 126.968 36.0445 126.71 35.8123L126.71 35.8127Z" fill="white"/>
<path fill-rule="evenodd" clip-rule="evenodd" d="M93.2378 20.9775C93.1205 20.921 86.5072 16.8152 92.7877 19.4167C92.9079 19.4665 99.4219 22.3163 93.2378 20.9775Z" fill="white"/>
<path fill-rule="evenodd" clip-rule="evenodd" d="M85.8992 16.6799C89.8226 18.6711 83.5783 18.085 83.5864 16.4936C83.5873 16.3082 83.5903 15.7013 85.8992 16.6799Z" fill="white"/>
<path fill-rule="evenodd" clip-rule="evenodd" d="M76.3749 13.4767C75.7402 13.5163 75.6559 14.0789 73.6381 12.9991C71.5717 11.8938 75.6085 10.7511 76.3749 13.4767Z" fill="white"/>
<path fill-rule="evenodd" clip-rule="evenodd" d="M105.018 24.2828C106.761 26.4088 103.05 25.9575 103.368 24.5532C103.557 23.7197 104.893 24.2347 105.018 24.2828Z" fill="white"/>
<path fill-rule="evenodd" clip-rule="evenodd" d="M99.5435 22.1096C101.918 23.9034 99.22 23.4199 99.1254 23.3714C96.0485 21.797 99.4417 22.0781 99.5435 22.1096Z" fill="white"/>
<path fill-rule="evenodd" clip-rule="evenodd" d="M79.5522 14.1421C82.1428 14.9374 80.5708 15.7726 80.4221 15.7807C80.2908 15.788 76.9091 14.8413 79.5522 14.1421Z" fill="white"/>
<path fill-rule="evenodd" clip-rule="evenodd" d="M69.6456 10.2388C70.9499 12.2993 67.5503 11.2735 68.1879 10.2218C68.4607 9.77184 69.5374 10.1958 69.6456 10.2388Z" fill="white"/>
<path fill-rule="evenodd" clip-rule="evenodd" d="M126.71 35.8127C126.968 36.045 127.225 36.2776 127.483 36.5098C126.992 36.4745 126.502 36.4396 126.011 36.4043C126.478 36.1168 126.313 36.0662 126.71 35.8127Z" fill="white"/>
</g>
<defs>
<clipPath id="clip0_82_277">
<rect width="130" height="74" fill="white"/>
</clipPath>
</defs>
</svg>
