<svg width="97" height="81" viewBox="0 0 97 81" fill="none" xmlns="http://www.w3.org/2000/svg">
<g clip-path="url(#clip0_82_259)">
<path fill-rule="evenodd" clip-rule="evenodd" d="M71.6383 37.0372C71.447 53.5239 72.7535 54.8274 69.0739 57.1082C62.5905 61.1267 56.8364 64.5591 55.7667 65.1975C51.1804 67.9339 51.0979 70.3959 46.5619 67.6717C28.4476 56.7938 28.1737 56.4991 26.9068 55.1343C26.6013 54.8055 26.6882 51.1573 26.6817 30.6425C26.6807 27.4739 25.6898 23.6253 28.6341 21.781C48.1278 9.56757 48.3213 8.1991 51.0362 9.79032C52.7179 10.7762 70.6125 21.2641 71.4009 23.1601C71.7155 23.9174 71.6361 30.8562 71.6383 37.0372L50.1911 42.3651C50.1455 47.7447 49.5769 54.3435 51.0925 53.2596C58.658 47.8481 69.9979 41.7517 70.0091 39.7065C70.0777 27.0316 70.4207 24.9176 68.5455 26.2008C51.3471 37.9714 50.1595 37.423 50.1423 40.2362C50.138 40.946 50.1954 41.6553 50.1911 42.3651L71.6383 37.0372L48.3749 53.6161C47.8492 50.4171 49.3256 44.5446 48.2656 40.7835C47.8288 39.2338 48.6069 38.9429 47.3894 37.9368C44.3856 35.454 32.6502 28.3308 29.6635 26.1401C28.2321 25.0897 28.663 29.4525 28.6684 37.5712C28.671 42.0901 29.9947 41.6414 35.3147 45.2012C46.0088 52.3558 47.2077 53.2953 48.3744 53.6166L71.6377 37.0378L47.3427 11.7045C34.4455 20.5255 27.8854 23.1047 30.2413 24.5313C33.7311 26.6447 47.3459 35.9736 47.7784 35.9741C48.974 35.9762 48.7125 14.8597 48.302 12.5283C47.7891 11.9667 47.8342 12.0077 47.7891 11.9667C47.5753 11.7722 47.5496 11.8931 47.3422 11.7045L71.6372 37.0378L50.1359 35.8713C51.9816 35.4599 51.9323 35.3096 58.6328 30.8151C68.4598 24.2232 68.4657 24.2307 68.5643 24.1374C69.8103 22.964 67.7454 23.3823 51.0877 11.7658C49.4987 10.6579 50.1327 12.6802 50.1359 35.8713L71.6372 37.0378L50.1547 66.2281C52.0196 65.5892 51.8787 65.4698 67.1339 56.3238C70.7524 54.1543 69.9818 53.3326 70.0949 43.4639C70.1158 41.6201 56.4146 52.0883 51.0475 55.2494C49.2993 56.279 50.2366 56.8321 50.1547 66.2281L71.6377 37.0378L48.5882 59.4188C48.2597 53.4237 46.2741 54.4187 41.2248 51.0492C40.2955 50.4289 29.6292 43.3115 29.6008 43.3057C28.7905 43.1367 28.5097 43.6457 28.6737 53.5548C28.6994 55.1125 29.3661 54.7975 37.4589 60.1228C47.6048 66.7994 48.3706 67.4149 48.4092 66.4099C48.6562 59.9682 48.5587 59.9778 48.5882 59.4188L71.6377 37.0378L71.6383 37.0372Z" fill="white" fill-opacity="0.91"/>
<path fill-rule="evenodd" clip-rule="evenodd" d="M35.9955 80.4725C33.3926 79.809 9.78139 75.3103 6.47749 48.2457C6.30814 46.8564 4.94157 49.2875 2.57981 52.8792C1.01334 55.2612 -0.663531 53.8757 0.267347 52.6314C5.7658 45.2833 5.54233 45.205 6.12861 44.6732C7.78726 43.1688 16.1946 50.8441 15.0767 51.9472C14.7252 52.2941 14.0719 52.9389 9.8741 48.6048C7.16507 45.8082 8.67098 50.9672 9.0488 52.544C15.2129 78.2722 40.2142 79.1125 40.2565 79.1557C42.6231 81.5489 36.3476 80.53 35.9955 80.473V80.4725Z" fill="white" fill-opacity="0.93"/>
<path fill-rule="evenodd" clip-rule="evenodd" d="M59.0311 0C94.248 6.70861 87.9945 37.5584 91.6033 32.1362C92.9292 30.1448 95.4002 25.8449 96.5353 26.9245C97.3804 27.7286 90.9023 37.301 89.1135 36.3653C88.6847 36.1409 81.6279 30.724 81.4837 30.1299C80.3953 25.6482 88.3562 34.9105 88.2212 32.3861C87.3476 15.9975 73.8705 3.67378 59.5478 2.0218C59.1051 1.97064 57.5874 1.49477 57.4261 1.33277C57.3087 1.21447 56.6147 0.398605 59.0311 0Z" fill="white" fill-opacity="0.93"/>
<path fill-rule="evenodd" clip-rule="evenodd" d="M68.946 76.1502C69.9493 77.9407 76.9118 78.2077 76.7848 79.679C76.6214 81.5702 70.5736 79.1957 65.9809 77.5719C63.8377 76.8142 69.4798 66.3604 69.7344 66.3012C72.9691 65.5482 67.8903 73.8779 67.8421 74.2968C67.7199 75.3567 68.3662 74.4668 70.3598 73.417C71.9075 72.6016 85.5063 66.7643 88.7887 49.7948C89.3686 46.7973 90.5363 48.6166 90.5283 48.777C89.6644 65.8078 71.4472 74.9016 68.9466 76.1502H68.946Z" fill="white" fill-opacity="0.94"/>
<path fill-rule="evenodd" clip-rule="evenodd" d="M8.89997 29.0812C13.1782 12.8215 22.1107 8.76348 29.4447 5.38599C32.1151 4.15607 18.8604 1.26565 23.6499 0.230768C24.6949 0.00482026 33.3236 3.95464 33.6468 4.18272C34.6452 4.88827 29.9002 14.3189 29.0176 14.3194C26.301 14.3205 32.7861 6.06597 30.0621 6.97988C20.9081 10.0504 15.7575 17.9975 14.9092 19.3063C8.24509 29.5885 11.5431 32.1293 9.72742 33.3044C8.16845 34.3131 8.85228 29.4222 8.89997 29.0812Z" fill="white" fill-opacity="0.95"/>
<path fill-rule="evenodd" clip-rule="evenodd" d="M47.3433 11.7039C48.0314 11.9138 47.9912 11.9016 48.3031 12.5277C47.7902 11.966 47.8352 12.0071 47.7902 11.966C47.5764 11.7715 47.5507 11.8925 47.3433 11.7039Z" fill="white" fill-opacity="0.07"/>
</g>
<defs>
<clipPath id="clip0_82_259">
<rect width="97" height="81" fill="white"/>
</clipPath>
</defs>
</svg>
