<svg width="56" height="56" viewBox="0 0 56 56" fill="none" xmlns="http://www.w3.org/2000/svg">
<g clip-path="url(#clip0_61_12)">
<path d="M27.6988 0C12.4004 0 0 12.4004 0 27.6988C0 42.9971 12.4004 55.3975 27.6988 55.3975C42.9954 55.3975 55.3975 42.9954 55.3975 27.6988C55.3975 12.4021 42.9971 0 27.6988 0ZM27.7126 41.5551C25.1459 41.5538 22.6175 40.932 20.343 39.7425L11.7079 43.6723L14.1246 34.002C12.549 31.4611 11.7121 28.5315 11.7079 25.5417C11.7079 16.7197 18.8646 9.55781 27.7143 9.55781C36.5312 9.55781 43.6896 16.7197 43.6896 25.5417C43.6879 34.3932 36.5312 41.5551 27.7126 41.5551Z" fill="white"/>
<path d="M27.7127 12.7603C20.6443 12.7603 14.9072 18.4714 14.9072 25.5415C14.9037 28.6149 16.0082 31.5867 18.0182 33.9117L16.2662 38.3539L20.1631 35.8766C22.3453 37.4974 24.9944 38.3667 27.7127 38.3539C34.7794 38.3539 40.487 32.6133 40.487 25.5432C40.4921 22.1529 39.1481 18.8999 36.7516 16.5018C34.3551 14.1037 31.103 12.7575 27.7127 12.7603ZM35.8077 30.8874C35.6865 31.521 34.1769 32.8817 32.998 33.1535C30.4618 33.7265 26.8679 31.7028 24.5412 29.5596C22.2145 27.4458 19.8913 24.0302 20.2237 21.4611C20.3743 20.2822 21.6121 18.6514 22.2162 18.4402C22.488 18.3796 22.8793 18.3796 23.2428 18.3796C23.6652 18.4091 24.0288 18.4402 24.15 18.6809L25.5089 22.2159C25.599 22.4877 25.3878 22.7889 25.116 23.1231C24.7247 23.5766 24.6641 23.6061 24.3006 24.0908C24.1205 24.3314 24.24 24.6344 24.3006 24.7538C24.6936 25.6904 25.599 26.7481 26.4143 27.5029C27.2609 28.2594 28.3758 29.0748 29.3435 29.4055C29.4041 29.4055 29.7659 29.5561 30.0377 29.4955C30.2783 29.4661 30.4289 29.2843 30.6401 29.0125C31.0314 28.5295 31.1837 28.3477 31.5161 27.8942C31.7879 27.5618 32.058 27.4406 32.3332 27.5912L35.413 29.0125C35.6553 29.1337 35.7454 29.4349 35.7748 29.8591C35.8371 30.2243 35.8683 30.6173 35.8077 30.8874Z" fill="white"/>
</g>
<defs>
<clipPath id="clip0_61_12">
<rect width="55.3975" height="55.3975" fill="white"/>
</clipPath>
</defs>
</svg>
