<svg width="56" height="56" viewBox="0 0 56 56" fill="none" xmlns="http://www.w3.org/2000/svg">
<path d="M24.0093 33.0329L33.0763 27.7096L24.0093 22.3862V33.0329Z" fill="white"/>
<path d="M27.6988 0C12.3995 0 0 12.3995 0 27.6988C0 42.998 12.3995 55.3975 27.6988 55.3975C42.998 55.3975 55.3975 42.998 55.3975 27.6988C55.3975 12.3995 42.998 0 27.6988 0ZM41.5481 32.6542C41.5481 37.4258 36.7766 37.4258 36.7766 37.4258H18.6209C13.8494 37.4258 13.8494 32.6542 13.8494 32.6542V22.7541C13.8494 17.9826 18.6209 17.9826 18.6209 17.9826H36.7766C41.5481 17.9826 41.5481 22.7541 41.5481 22.7541V32.6542Z" fill="white"/>
</svg>
